<?xml version="1.0" encoding="utf-8"?>
<!-- Generator: Adobe Illustrator 24.2.0, SVG Export Plug-In . SVG Version: 6.00 Build 0)  -->
<svg version="1.1" id="Layer_1" xmlns="http://www.w3.org/2000/svg" xmlns:xlink="http://www.w3.org/1999/xlink" x="0px" y="0px"
	 viewBox="0 0 94.4 64.5" style="enable-background:new 0 0 94.4 64.5;" xml:space="preserve">
<style type="text/css">
	.st0{fill:#F2EFE1;}
	.st1{fill:#231F20;}
</style>
<g>
	<path class="st0" d="M77.8,17.4C77.5,8.6,70.1,1.7,61.3,2.1C56.7,2.3,52.4,4.4,49.5,8c-4.8-7.4-14.6-9.5-22-4.7
		c-4.5,2.9-7.3,8-7.3,13.4c0,0.1,0,0.2,0,0.3c-1.1-0.2-2.1-0.3-3.2-0.3C8.2,16.9,1.3,24.3,1.5,33c0.2,8.5,7,15.3,15.5,15.5h0.5
		c0.4,8.8,7.9,15.6,16.6,15.2c5.3-0.2,10.2-3.1,12.9-7.7c4.5,7.5,14.3,10,21.9,5.4c4.4-2.6,7.2-7.2,7.7-12.3c0.3,0,0.5,0,0.8,0
		c8.8,0.1,16-6.9,16.2-15.7C93.7,24.7,86.6,17.5,77.8,17.4z"/>
	<path class="st1" d="M60.8,64.5c-5.3,0-10.5-2.5-13.7-7.1c-3,4.2-7.7,6.9-12.9,7.1c-8.9,0.4-16.6-6.3-17.4-15.2
		C8,49,1,41.9,0.8,33.1C0.5,23.9,7.8,16.2,17,16c0.8,0,1.7,0.1,2.5,0.2c0.2-5.5,3-10.5,7.6-13.5c7.4-4.8,17.3-2.9,22.5,4.1
		c3-3.3,7.2-5.3,11.7-5.5c9-0.4,16.5,6.5,17.3,15.3c8.9,0.5,15.9,7.9,15.7,16.9C94.2,42.6,86.7,50,77.6,50c-0.1,0-0.2,0-0.3,0h-0.1
		c-0.6,5-3.6,9.6-7.9,12.2C66.6,63.8,63.7,64.5,60.8,64.5z M47.1,54.6l0.6,1c4.3,7.2,13.7,9.5,20.9,5.2c4.2-2.5,6.9-6.9,7.3-11.7
		l0.1-0.7h1.4c8.4,0.1,15.3-6.6,15.4-15c0.1-8.4-6.6-15.3-15-15.4l-0.7,0l0-0.7C76.8,9,69.7,2.5,61.4,2.8C57,3,52.9,5,50.1,8.5
		l-0.6,0.8l-0.6-0.9c-4.6-7-14-9.1-21-4.5c-4.4,2.8-7,7.6-6.9,12.8v1.2l-0.9-0.2c-1-0.2-2-0.3-3.1-0.3C8.7,17.7,2,24.6,2.2,33
		C2.4,41.1,8.9,47.7,17,47.9h1.2l0,0.7c0.4,8.4,7.5,14.9,15.9,14.5c5.1-0.2,9.7-3,12.3-7.4L47.1,54.6z"/>
</g>
</svg>
