<svg id="Layer_1" data-name="Layer 1" xmlns="http://www.w3.org/2000/svg" viewBox="0 0 1020.94 296.66"><defs><style>.cls-1{fill:#ffad14;}.cls-2{fill:#fff;}.cls-3{stroke:#000;stroke-miterlimit:4.92;stroke-width:0.92px;}</style></defs><g id="g2667"><path id="path2574" d="M990.19,127.37c-1,9-6.46,15.4-9.84,23.37-1.25,2.95-1,6.41-2.46,8.61a40.09,40.09,0,0,0-2.46,3.69c-.68,1.27-1.8,1.5-2.46,2.46-.31.44.41,2.13,0,2.46-.16.14-1.13-.17-1.23,0-.26.46.38,2.15,0,2.46-.15.12-1.16-.15-1.23,0-.21.44.36,2.17,0,2.46-1,.83-.85.94-1.23,2.46,0,0-1.12,3.61-1.23,3.69-1.75,1.43-1.86,7.78-3.69,11.07-.36.65-1.16-.16-1.23,1.23,0,.27.14,1,0,1.23-.44.8-2.07,1.76-2.46,2.46-.25.46.38,2.15,0,2.46-1,.83-.85.94-1.23,2.46,0,0-1.13,3.61-1.23,3.69-.82.68-2.29,3.48-3.69,6.15-1.94,3.71-4.33,7.32-6.15,11.07-1,2-1.59,4.31-2.46,6.15-1.37,2.88-3,4.62-3.69,7.38-.54,2.16-1.88,3.85-2.46,6.15-.16.64.33,1.91,0,2.46s-2.2.74-2.46,1.23c-.75,1.42-.53,2.44-1.23,3.69-.36.66-1.16-.16-1.23,1.23-.05,1.05-1.87,2.72-2.46,3.69-1.7,2.76-3.38,9.56-6.15,13.53-1.76-.72-3.19-.34-4.92-1.23-.76-.39-1.81-2.14-2.46-2.46-1.7-.84-3.19-.34-4.92-1.23-.74-.38-1.83-2.16-2.46-2.46-1.3-.6-3.12-.44-4.92-1.23-.66-.29-1.93-2.27-2.46-2.46-2.57-.92-4,.24-6.15-1.23a22.78,22.78,0,0,1-3.69-2.46c-.27-.25-3.31-1.73-4.92-2.46a35.71,35.71,0,0,0-6.15-2.46c-2.41-.6-3.26-.17-4.92-1.23a10.79,10.79,0,0,0-3.69-1.23c-1.27-.32-2.63-1.83-4.92-2.46-.76-.21-1.7.2-2.46,0-1.58-.39-4.85-1.52-8.61-2.46-6.56-1.63-16.67-7.49-24.6-9.84-6-1.78-12.4-1.73-18.45-3.69-.42-.13,0-1.17-1.23-1.23-2.64-.13-3.39-1.34-6.15-2.46a52.78,52.78,0,0,0-12.3-3.69c-.79-.13-1.69.2-2.46,0-4.9-1.21-15.23-5.46-22.14-7.38-.77-.21-1.7.2-2.46,0-1.64-.4-6.73-2.91-9.84-3.69s-6.77-.5-9.84-1.23c-.26-.06-.15-1.17-1.23-1.23-7.69-.4-15.24-4.2-23.37-6.15-2.65-.62-3.66-.29-7.39-1.23A93.71,93.71,0,0,0,706.05,195c-1.61-.19-3.3.21-4.92,0-2.55-.34-5.09-.54-9.84-1.23-1.9-.28-2.12-.94-3.69-1.23-4.44-.78-9.42-.63-12.3-2.46-2-1.26-9.49-3.31-13.53-3.69-7-.66-14,1.4-20.91,1.23-5.36-.13-10.83-1.83-16-2.46-5.58-.67-10.64-.61-16-1.23.28,0-.78-1.12-1.24-1.23-1.88-.47-4.2.17-6.15,0-1.13-.1-1.86-1.47-3.69-1.23-1,.14-1.23,1.34-2.46,1.23-4.72-.42-10.08-2.13-14.76-2.46-13.12-.92-24.21-.07-36.9-1.23-17.39-1.57-38.55-.1-57.81,0-15.72.09-31.26-.13-46.74,1.23-13.48,1.2-26.14,1.17-40.59,2.46-2.38.21-3.4,1.22-4.92,1.23-5.43.05-10.57-1.67-16-1.23-.9.08-1.38,1-2.46,1.23s-2.51-.24-3.69,0a38.71,38.71,0,0,0-8.61,2.46c-.95.44-1.09,1.92-2.46,2.46-.7.29-1.73-.18-2.46,0a39.64,39.64,0,0,1-7.38,1.23,16.83,16.83,0,0,0-2.46,0c-1.6.41-6.78,1.74-11.07,2.46-7.95,1.36-15.63,2.39-23.37,3.69-.79.14-1.69-.19-2.46,0-4.05,1-13.2,2.56-19.68,3.69-2.91.51-6.07.67-8.62,1.23-.23.05-.17,1.18-1.23,1.23-4.51.24-10.87,2.16-16,3.69-1.55.47-4.07,1.95-6.15,2.46-2.33.58-3.17-.05-6.15,1.23-.65.29-2,2.29-2.46,2.46-2.16.73-3.29.67-4.92,1.23a38.81,38.81,0,0,1-3.69,1.23c-2.7.7-5.81.47-8.61,1.23-.33.09-.08,1.17-1.23,1.23-3.81.2-5.08,1.58-8.61,2.46-12,3-26.6,6.6-39.36,11.07-.45.16,0,1.17-1.23,1.23a5.06,5.06,0,0,0-1.23,0,22.33,22.33,0,0,1-3.69,1.23c-1,.25-.91,1.13-1.23,1.23-2.54.73-5.74.29-8.61,1.23-.43.15,0,1.17-1.23,1.23-2.67.14-3.33,1.41-6.15,2.46-11.35,4.27-25.57,9.13-38.13,13.53-1.77.62-3.93,1.91-6.15,2.46s-3.17,0-6.15,1.23c-.76.34-1.83,2.18-2.46,2.46-2,.93-3.33.31-4.92,1.23-.77.46-1.77,2.09-2.46,2.46-2.07,1.12-4.66,2.89-7.38,2.46-1.93-1.95-3.21-4.92-4.92-7.38-.48-.69-1.16.2-1.23-1.23a12,12,0,0,0-1.23-2.46c-.5-.75-2.07-1.76-2.46-2.46-.81-1.42-.38-3-1.23-4.92-.34-.77-2.16-1.82-2.46-2.46-.81-1.72-.34-3.18-1.23-4.92-.38-.75-2.16-1.82-2.46-2.46-.81-1.72-.34-3.18-1.23-4.92-.36-.7-2.2-1.87-2.46-2.46-.84-1.94-.63-3.4-1.23-4.92-2.09-5.27-4.93-13.33-7.38-19.68-.46-1.18-.49-3.24-1.23-4.92-.32-.72-2.21-1.87-2.46-2.46-1.07-2.57-1.27-6.25-2.46-8.61-.27-.54-2.26-.77-2.46-1.23-.3-.65.36-1.84,0-2.46-.48-.81-2-1.73-2.46-2.46-.27-.45.38-2.14,0-2.46-1.64-1.34-2.21-2.13-3.69-4.92-5.4-10.2-10.89-20.22-12.3-32-4.59-3.62-6-10.4-7.38-17.22,2.23-2.29,6.21-2.8,9.84-3.69,1.8-1.54,3.57-2,6.15-3.69a21.73,21.73,0,0,0,3.69-2.46c1-1,2-.82,3.69-1.23,1.3-.33.54-.87,1.23-1.23,2.25-1.14,4.62-2.45,7.38-3.69,1.73-.79,3.19-.34,4.92-1.23.66-.34,1.91-2.25,2.46-2.46a48.82,48.82,0,0,1,4.92-1.23c2-.6,2.89-.58,4.92-1.23.41-.14,0-1.17,1.23-1.23,2.68-.14,3.06-.76,4.92-1.23a31.89,31.89,0,0,0,4.92-1.23,54.46,54.46,0,0,0,7.38-3.69,10.58,10.58,0,0,1,3.69-1.23c1.06-.26.84-1.11,1.23-1.23,3.08-1,6.62-.52,9.84-1.23.23-.05.17-1.17,1.23-1.23,4.88-.26,10.67-2,16-3.69.19-.06.4-1,1.23-1.23,1.66-.42,4.21-.64,6.15-1.23,3-.9,5.89-1.55,8.61-2.46,1.1-.37,3.3-.54,4.92-1.23,2.34-1,3.1-3.46,6.15-4.92,2.4-1.16,2.68-.36,6.15-1.23,1.26-.31,2.7-1.65,4.92-2.46s3.89-1.89,6.15-2.46a31.89,31.89,0,0,0,4.92-1.23,23.31,23.31,0,0,1,3.69-1.23c1.16-.28,3.08-.68,4.92-1.23,1.15-.35,2.06-.82,3.69-1.23,1.28-.32,6.31-1.5,9.84-2.46.34-.09.09-1.17,1.23-1.23,4.69-.25,9.57-2.53,14.76-3.69,3.07-.69,6.37-.51,9.84-1.23,3.32-.7,5.74-1.44,9.84-2.46.5-.12,1.59-1.23,1.23-1.23,1,0,5.67,2.4,9.84,1.23,4.16.47,5.26-2.13,7.38-3.69,4.64-1,5.88,1.5,9.84,1.23,5.07-2.12,10.63-3.33,16-4.92s10.53-3.91,16-4.92c5.84-1.07,13-.49,19.68-1.23,1.21-.14,2.76-1,4.92-1.23,7.4-.67,18.13-1.18,27.06-2.46,1.3-.19,2.67-1.07,4.92-1.23,6.4-.46,14.15-.84,20.91-2.46a46.38,46.38,0,0,1,12.3-1.23c1.33,0,.77,1.14,1.23,1.23.29.06,3.5-1.06,4.92-1.23C398,32,404,29.36,409.62,29c6.15-.43,12.4,1.51,18.45,1.23,5.78-.27,12.61-3.08,18.45-3.69a336.19,336.19,0,0,1,35.67-1.23c8.47.12,16.42,1.2,24.6,1.23,4.53,0,9.75-1,14.76-1.23,3.44-.17,14.28,1.71,16,0,5.4-5.4,22.31-1.11,32,0,1.6.18,3.33-.28,4.92,0,2.84.5,1.56.83,4.92,0,4-1,10.91.79,16,1.23s8.44.21,13.53,1.23c.4.07,2.24-.28,2.46,0,2.54,3.09,11.07-.31,17.22,1.23a21.84,21.84,0,0,0,6.15,1.23,14.43,14.43,0,0,1,2.46,0A73.65,73.65,0,0,0,647,32.66c2,.26,2.09-1.26,3.68-1.23-.52,0,.94,1.15,1.24,1.23,2.51.63,7.74.87,11.06,1.23-.28,0,.81,1.12,1.24,1.23,3.48.87,13.64-1.21,18.45,0,0,0,3.61,1.12,3.69,1.23.8,1-.52,2.36,1.23,2.46,1,0,2,1.75,3.69,1.23,1.12.76,5.33-1,6.15,0,2,2.39,12.59.77,18.45,1.23,4.11.32,8,2,12.31,2.46s9.48-.6,13.53,0c3.86.58,7.11,2.59,11.07,3.69.76.21,1.69-.2,2.46,0,3.26.81,11.37,3.64,17.22,4.92,2.85.63,5.59.52,8.61,1.23,2.25.53,5,1.84,7.38,2.46,5.48,1.41,11,2.16,16,3.69.17.05.39,1,1.23,1.23,5.8,1.45,13.8,4.42,20.91,6.15,4.17,1,8,1.16,12.3,2.46.17,0,.4,1,1.23,1.23,2.59.65,6.59,1.36,9.84,2.46,4.45,1.5,9.88,2.94,13.53,6.15,4.48.55,9.2-.75,13.53,0,.12,0,.26,1.18,1.23,1.23.72,0,3.34.84,4.92,1.23,1.08.27,2.1.84,3.69,1.23,2.91.73,8,4.64,12.3,6.15.72.26,1.71-.18,2.46,0,1.08.27,2.1.84,3.69,1.23,5.77,1.44,15.21,5.34,23.37,7.38,1,.25.93,1.16,1.23,1.23,3.84,1,7.37.81,9.84,2.46.57.37.91,1,1.23,1.23,1.06.66,2.39.49,3.69,1.23.77.44,1.77,2.09,2.46,2.46,2.72,1.46,7.18,2.13,11.07,3.69a31.19,31.19,0,0,1,3.69,1.23c.71.38,1.85,2.18,2.46,2.46,2.3,1,5.09,1.41,7.38,2.46.73.33,1.86,2.2,2.46,2.46s1.74-.18,2.46,0c1.08.27,2.1.84,3.69,1.23C983.07,120.67,988.17,123.51,990.19,127.37ZM957,149.51c1.35-2,1.48-4.34,1.23-7.38-1.33-1.45-4.46-3.14-4.92-3.69s-3.25-.93-3.69-1.23c-3.27-2.19-6.89-2.23-11.07-1.23a55.86,55.86,0,0,0-8.61-6.15c-.32-.2-.66-.86-1.23-1.23-1.48-1-2.5-1.11-4.92-1.23-.95-.05-1.14-1.22-1.23-1.23-4.23-.68-12.14.68-13.53,1.23a4.6,4.6,0,0,1-1.23,0c-1.3.07-.7,1-1.23,1.23-4.63,1.9-5.76,2.07-8.61,4.92A21.11,21.11,0,0,0,893,140.9a11.74,11.74,0,0,0-1.23,2.46c-.06,1.19-1.11.83-1.23,1.23-.58,1.83.29,4.24,0,6.15a2.8,2.8,0,0,0-1.23,1.23,14.24,14.24,0,0,0,0,3.69c.15,3.84,2.32,7.27,2.46,9.84.07,1.32,1,.68,1.23,1.23a64.53,64.53,0,0,0,4.92,9.84c.12.19,1-.15,1.23,0,.4.33-.33,2,0,2.46.44.59,2,.59,2.46,1.23,1,1.36,1.52,3.21,2.46,4.92.09.17,1.07-.13,1.23,0,.36.3-.21,2,0,2.46.07.15,1.08-.12,1.23,0,.32.26-.14,2,0,2.46,0,.13,1.12-.1,1.23,0,1.54,1.26-1.18,6.41,0,7.38-3.4,4.34-11.14,4.34-13.53-1.23-3.21-3.11,2.63-9.76-1.23-13.53-1.32-3.2-7.3-1.72-8.61-4.92-4.4-.51-6.57-3.27-12.3-2.46-.31,3.35-1.91,4.77-2.46,6.15a4.6,4.6,0,0,0,0,1.23c-.06,1.24-1.07.78-1.23,1.23-1.15,3.25-1.11,7.63-2.46,11.07a9.4,9.4,0,0,0-1.23,1.23c-3.1,4.87-6.47,12.35-4.92,17.22,2.61,4.78,11.63,3.13,14.76,7.38,5.08,1.28,4.77-4,7.38-3.69.76.1,2.73,3.87,4.92,6.15.59.62.7,1.81,1.23,2.46.33.41,2-.34,2.46,0,2.34,1.88,3.3,4.78,6.15,4.92,1.23.06.79,1.09,1.23,1.23a34.5,34.5,0,0,0,9.84,1.23,33.58,33.58,0,0,0,8.61-1.23c.12,0-.1-1.1,0-1.23.29-.35,2,.21,2.46,0,.15-.07-.12-1.08,0-1.23.32-.38,2,.27,2.46,0s.7-2.06,1.23-2.46c1.13-.85,2.71-.35,3.69-1.23,3.25-2.89,7.92-10.76,8.61-13.53.39-1.58,1-2.6,1.23-3.69,4-15.89-2.79-26-8.61-34.44-1.24-1.79-3.64-3.9-3.69-4.92-.12-2.42-3.58-2.84-3.69-4.92-.07-1.39-.87-.58-1.23-1.23-2-3.65-2.65-6.19-1.23-9.84a5.78,5.78,0,0,0,3.69-1.23c8.06-.26,7.7,7.87,8.61,14.76,7.42.38,10.09,5.5,18.45,4.92.75-5,4.24-7.23,3.69-13.53C954.58,155.83,956,151,957,149.51Zm-52.89-36.9a9.21,9.21,0,0,0,0-2.46,16.26,16.26,0,0,0-1.23-3.69c-1.19-3.28-4.66-7.23-7.38-7.38-1.05,0-1-1.18-1.23-1.23-3.46-.74-7.9,1.06-8.61,1.23-3.43.86-4.33,2-6.15,4.92-3.22,5.2-2.33,6.83-1.23,12.3,1,.27,1.43,1,1.23,2.46,2.93.76,5.73,1.65,6.15,4.92-.63,5.12-8.34,3.14-8.61,8.61,3.75,3.63,8,1.7,9.84,1.23,2.59-.65,2.32-.79,3.69-2.46.32-.39,2,.28,2.46,0,1.41-.91,8.54-9.74,8.61-11.07s1-.73,1.23-1.23c.54-1.39-.3-3.44,0-4.92C902.88,113.72,903.88,113.45,904.09,112.61ZM863.5,138.44a107,107,0,0,0,8.61-29.52c-10.94-2.59-20.43-6.63-32-8.61-2.36,3.38-2.89,8.59-3.69,13.53-2.78,2.55-3.84,6.81-4.92,11.07-.37,3.24,4.77,1,3.69,4.92-5.09,1.48-5.34,7.79-11.07,8.61-.84-4.91-3.11-8.36-2.46-14.76a8,8,0,0,0,6.15-1.23c1.14-8.7,6.37-13.31,6.15-23.37-4-3.32-9.58-3.27-14.76-4.92-6.67-2.12-13.15-6-20.91-4.92-2.13,8.94-5.6,16.54-6.15,27.06,0,3.73,6.18,1.19,6.15,4.92a188,188,0,0,1,4.92,19.68c.35,2,1.34,5.88,1.23,7.38-.22,3-2.78,6-3.69,8.61-1.25,3.62-1.47,6.56-2.46,9.84-3.88.62-4.81-2.68-7.38,0-3.14,7.11-6.51,14-6.15,24.6,11,5,24.2,7.78,36.9,11.07a35.43,35.43,0,0,0,6.15-11.07c1.18-3.43,1-6.2,2.46-7.38s-1.18-6.41,0-7.38c-.38-2.89-5.83-.72-4.92-4.92,0-1.23-.06-2.46,0-3.69s1.12-.86,1.23-1.23c.56-1.9.54-4.93,1.23-6.15.51-.91,2.9-1.67,3.69-2.46,3.21-3.21,5.91-7.51,8.61-9.84.45-.39,1.9.25,2.46,0,.33-.15.86-2.15,1.23-2.46a80.21,80.21,0,0,1,11.07-7.38ZM786,115.07c.56-6.59-2.25-10.82-2.46-14.76-.13-2.26-2.37-3.15-2.46-4.92-.13-2.26-2.69-2.87-3.69-3.69-.42-.34.38-2.07,0-2.46-.61-.64-3-.73-3.69-1.23-.9-.69-1.38-1.72-2.46-2.46a54.67,54.67,0,0,0-6.15-3.69,79.1,79.1,0,0,0-8.61-3.69c-1.59-.39-2.61-1-3.69-1.23-1.59-.39-2.61-1-3.69-1.23-8.16-2-15.06-3.63-22.14-4.92-4.09-.75-8.69-1.71-11.08-1.23-.55,11.34-4.5,19.27-6.15,29.52,1.25-.32.82.7,1.23,1.23,2,2.48,6.41,1.32,7.38,3.69-1.83,13.74-4.77,26.4-7.38,39.36-.89,2.79-8.51-1.13-7.38,3.69-2.6,1.38-.91,4.26-1.23,6.15-.2,1.22-1,1.44-1.23,2.46-.25,1.18.2,2.51,0,3.69-.71,4.22-3.64,9-1.23,12.3,3.17,2.83,7.27,1.69,11.07,2.46.09,0-.07,1.13,0,1.23.21.26,2.1-.05,2.46,0,2,.25,2.71,0,3.69,1.23.21.26,2.1,0,2.46,0,2,.25,2.71,0,3.7,1.23.28.35,2-.17,2.46,0,3,1.21,6.5,3,9.84,2.46,3.48-2.24,1.55-8.13,3.69-11.07,0-4.92,2.46-7.38,2.46-12.3-.71-3.81-6.59-2.43-4.92-8.61,2-.91-.29-6,3.69-4.92,4.1-.44,4.19,4.48,4.92,7.38s.81,7.7,1.23,11.07c.93,7.53.68,16,3.69,20.91,3.75,2.7,8.69,2.62,13.53,3.69,4.57,1,9.25,3.09,14.76,2.46a28.73,28.73,0,0,0,2.46-13.53c2.65-2.26,2.58-7.26,2.46-12.3-2.13-2-7.61-.59-8.61-3.69-1.42-6.38-3.8-11.77-4.92-18.45,2.23-3.5,6.75-4.72,9.84-7.38,1.36-4.32,2.75-4.85,3.69-8.61C784.2,122.33,785.76,117.87,786,115.07Zm-92.26,55.35a147.2,147.2,0,0,0,2.46-25.83c-3-1.55-7.44-1.59-9.84-3.69-.57-7.61-4.41-12-6.15-18.45,2.94-2.43,8.47-4.51,8.61-7.38.08-1.41.79-.55,1.23-1.23a13.62,13.62,0,0,0,2.46-7.38c.05-.92,1.23-1.18,1.23-1.23a62.11,62.11,0,0,0,0-16c-.19-1.14-1.56-2.87-2.46-4.92s-1.46-4.58-2.46-6.15c-.12-.18-1.05.15-1.23,0-.4-.33.34-2,0-2.46-1.51-2-7.17-6.14-7.38-6.15-2.26-.12-3.14-2.36-4.92-2.46-1.35-.07-.64-.95-1.23-1.23-2.36-1.12-6-1.78-8.61-2.46-3.22-.85-5.47-1.62-6.15-2.46-.21-.26-2.09,0-2.46,0-2-.25-2.7,0-3.69-1.23-.21-.26-2.09.05-2.46,0-2-.25-2.7,0-3.69-1.23-.21-.26-2.09,0-2.46,0-6.81-.82-17.78-1.75-23.37-1.23-1.1,10.38-3.5,19.45-3.69,30.75,2.2,1.49,7.16.22,8.61,2.46-.18,14.17-2.92,25.78-3.69,39.36-1.63.53-2.22,1.72-3.69,2.46s-4.52-.69-3.69,2.46c-1.87,7.15-1.63,16.4-2.46,24.6,6.77,3.73,16.39,2.39,24.6,3.69,4.55.73,8,3.49,12.3,2.46,2.52-2,2.86-6.16,2.46-11.07,1.36-3.57,1.11-8.73,2.46-12.3-1.77-1.92-3.1-4.28-6.15-4.92,0-4.05-.5-8.71,3.69-8.61,4.67-.57,4.05,4.77,4.92,7.38,2.12,6.35,3.5,17.43,4.92,22.14.61,2-.12,2.58,1.23,3.69,1,.8.45,3.88,1.23,4.92C673.24,168.8,682.6,170.51,693.75,170.42Zm-86.1-79.95c2.3-9.58.81-23,1.23-34.44-20.92-2-43.11-2.81-65.19-3.69-.06,1.57-1.57,1.7-1.23,3.69,1.1,10.39-4.13,17.26-1.23,25.83,2.13,2,7.6.59,8.61,3.69-.37,13.16-2.88,24.18-2.46,38.13-1.76.3-2.08,2-3.69,2.46-2.18.28-6.16-1.24-4.92,2.46-1.81,7.63-1.87,17-2.46,25.83,6.89,1.37,15.92,2,20.91,2.46,2.74.26,5.87-.27,8.61,0,1.93.2,4.31,1.15,6.15,1.23,6,.28,11.66-.2,17.22,0,5.8.21,11,3.24,16,0,2.39-4,.79-9.4,1.23-14.76.57-6.81,2.89-13.86,1.23-18.45-5.77-2-14.38-1.19-20.91-2.46-.27,1.76-2,2.07-2.46,3.69-1,3.84,1.49,8.16-3.69,7.38-7.78-.38-2.19-7.38-3.69-14.76,2.9-1.61,8.5-.52,11.07-2.46-.92-7.49,2-11.16,1.23-18.45-3.23-2.09-10.54-.12-13.53-2.46,3.41-2.74-1.57-13.87,3.69-14.76a8,8,0,0,0,6.15,1.23v8.61C592.87,93.24,599,89.88,607.65,90.47Zm-81.18-9.84c2-2,9,.77,8.61-3.69-.68-8.34,1.44-19.48-1.23-25.83H478.5c-1.23,0-1.46,1-2.46,1.23-1.76,7.07-2.19,21.29,0,28.29,6,4.51,13.1.36,22.14,1.23,4.27,6.08,1.55,16,1.23,24.6-.2,5.18,1.84,6.77,0,8.61-1.23,1.23.18,3.76-1.23,4.92-1.57,1.29.09,5.27-2.46,4.92-1.13,2.15-3.85,2.72-7.38,2.46-.92-4.61,4.7-2.68,4.92-6.15,4.5-5,1.44-9.63,1.23-13.53-.07-1.41-.8-.55-1.23-1.23-2.24-3.48-3.57-4.72-7.38-4.92-1-.05-1.07-1.21-1.23-1.23-6.67-1.25-16.18,2.26-19.68,6.15-1.39,1.54-1.92,4.11-2.46,4.92-.81,1.22-.81,2-1.23,3.69-1.77,7.07-.62,16.75,1.23,22.14,2.68,7.82,5.07,9.88,9.84,13.53a10.17,10.17,0,0,0,4.92,2.46c1.86.47,2.24,1.08,4.92,1.23,1,0,1.09,1.21,1.23,1.23,6.53,1.16,19.8-.29,22.14-1.23,2.82-1.12,5.1-1.3,7.38-2.46a22.34,22.34,0,0,0,8.61-7.38c.63-1,2-1.67,2.46-2.46,1.5-2.74,1.53-6.24,2.46-9.84,0-.11,1.13.1,1.23,0,.59-.59-.16-4,0-4.92C530.15,113.31,526.57,98.74,526.47,80.63Zm-72.57,16c.63-2.62.76-11.25,0-16,0,0-1-.47-1.23-1.23A10,10,0,0,0,449,73.25c-4-3.54-8.67-5.52-16-3.69-.35.09-2,2.19-2.46,2.46-1.43.76-2.73.1-3.69,1.23-.36.42.42,2.12,0,2.46-4.33,3.54-2.89,12.12,1.23,13.53-.6,3.89,6.1.46,4.92,4.92-5.94,4.93-15.87,4.18-24.6,6.15-3,.68-5.55,1.72-6.15,2.46-.3.36-2-.21-2.46,0-.15.07.12,1.08,0,1.23-.33.41-2-.31-2.46,0-2.66,1.88-5.29,6.43-6.15,8.61-2.67,6.73-1.12,16.45,8.61,16,3.37-2-2.12-5.92,2.46-7.38,1.12-3,4.94-3.26,8.61-3.69.13,2.33,4.07.85,3.69,3.69,1.5,10.68-8.13,14.71-14.76,14.76-6.26,0-15.59-5-17.22-12.3-.58-2.58-.94-8,0-11.07.1-.34,2.13-2,2.46-2.46,1-1.24,1.52-2.46,2.46-3.69,1.63-2,7-.41,8.61-2.46,1-5.12,3.17-9.13,2.46-16-5.6.38-11.31-2-11.07-7.38.12-2.79,1.6-6,6.15-6.15,6.46.1,4.81,8.31,11.07,8.61a50.15,50.15,0,0,0,16-2.46c-2.71-7.13.13-19.82-2.46-27.06-6.46-.71-9.31,2.16-16,1.23-2,0-.69,3.41-2.46,3.69C393,52.83,384,55.66,377.64,57.26c-.93.23-.95,1.13-1.23,1.23-1.72.61-3.51.25-4.92,1.23-1.73,1.19-6.12,6.64-6.15,7.38-.08,1.29-1,.7-1.23,1.23-.56,1.35.26,3.48,0,4.92,0,0-1,.58-1.23,1.23a13.81,13.81,0,0,0,0,3.69c.19,5.71,2.88,9.64,6.15,14.76-9.46,7.93-16.76,14.85-17.22,29.52-.06,2,1,4,1.23,6.15.59,4.81-.31,6.13,1.23,7.38.34.28-.18,2,0,2.46a29.35,29.35,0,0,0,2.46,4.92c.59,1,2.41,2.65,2.46,3.69.08,1.67,6.86,8.22,7.38,8.61s1.87-.27,2.46,0c.91.41.88,2.38,2.46,2.46,1.35.08.64.95,1.23,1.23,2.78,1.32,5.18,1.7,8.61,2.46,7.39,1.64,19.07,1.05,24.6,0a28.4,28.4,0,0,1,3.69,0c1.12-.06.92-1.14,1.23-1.23,6.18-1.61,10.81-2.82,13.53-6.15.33-.4,2,.31,2.46,0,1.46-1,2.94-3.21,3.69-3.69s1.78-.53,2.46-1.23c.95-1,.4-2.51,1.23-3.69.7-1,3-1.39,3.69-2.46s.85-2.85,1.23-3.69c1.13-2.45,3.32-7.88,3.69-11.07.82-7.15-.71-11.48-2.46-16,3.93-4.67,8.93-7.66,11.07-12.3a12.25,12.25,0,0,0,1.23-2.46C452.73,96.77,453.84,96.88,453.9,96.62ZM342,165.5c1.24-4.3-.46-9.67-1.23-14.76-.85-5.55-2.09-10.77-2.46-16-2.4-2.83-7.93,2.36-11.07-1.23-1.64-13.12-4.54-25-6.15-38.13,3.71-.79,7.09-1.92,7.38-6.15-2.77-7.07-2.45-17.23-4.92-24.6C316,63.62,309,67,302.61,68.33c-4.42.93-10.68,2-12.3,2.46-1.14.34-2.55-.28-3.69,0a11.36,11.36,0,0,0-4.93,2.46c-1.37,10.41,4.69,13.35,3.7,23.37,2.95,3.48,7.44-1.7,9.84,1.23-.26,5.22,4.4,11.93,1.23,14.76-.35-3.12-3.66-5.73-6.15-8.61-2.23-2.57-4.88-4.64-7.39-7.38-1.13-1.23-2.49-2.2-3.69-3.69-1.05-1.33-1.25-3.47-2.46-4.92-.83-1-2.63-2.44-3.69-3.69-1.23-1.48-2.7-4-3.69-4.92-.77-.69-2.92-.71-3.69-1.23-1.59-1.1-.89-2-3.69-2.46-1.69-.27-3.67.65-6.15,1.23-3.61.85-6.55,1.45-7.38,2.46-.2.26-2.09-.05-2.46,0-4.93.59-6.77.7-9.84,2.46-.76,11.83,3.15,19,3.69,29.52,1.28,2.82,8.79-.58,9.84,2.46a235.94,235.94,0,0,1,7.38,36.9c-1.09,3-6.86,1.33-6.15,6.15,1.3,9.37,2.18,19.14,6.15,25.83,13.2-2.79,27.48-4.5,39.37-8.61-.2-10.87-4.46-17.69-6.15-27.06-3,.16-5.93.19-7.39-1.23.67-4.85-3.75-11.76-1.23-13.53,1.75,1.26,3.13,1.71,4.93,3.69,1.42,1.58,2.18,4.48,3.69,6.15,2.28,2.56,6,4.36,7.38,6.15.73,1,.41,2.73,1.23,3.69,1.11,1.32,3.64,2.15,4.92,3.69.77.92.56,2.82,1.23,3.69,1.37,1.81,4,2.7,4.92,3.69s.39,2.74,1.23,3.69c5.68,6.42,10.44,2.87,18.45,1.23C333.61,167.16,338.07,167.94,342,165.5Zm-92.26,19.68c1-4.48-.94-10-1.23-11.07-.44-1.76-.46-2.48-1.23-3.69-3.56-5.59-1.53-14.19-6.15-19.68-7.12,1.9-14.49,3.56-20.91,6.15.45,6.77,3,12-4.92,12.3-3.22-2.93-3.06-9.24-4.92-13.53,2.45-1.65,5.86-2.35,8.61-3.69.45-8.24-2.58-13-3.69-19.68-6.65-1.33-7.33,3.33-13.53,2.46.41-5.2-7.3-16.12,2.46-16,5-.06,1.45,8.39,7.38,7.38,6.56-2,13.19-4,18.45-7.38-2.7-11.24-5.57-22.3-9.84-32-3.83-.73-6.77.49-7.38,1.23-.24.31-2-.12-2.46,0-4.5,1.27-7.28,2.55-11.07,3.69-4.79,1.44-13.07,2.87-14.76,4.92-.24.31-2-.12-2.46,0-1.55.44-2.61.92-3.69,1.23-5.69,1.61-10.58,1.77-16,3.69a17.42,17.42,0,0,0-6.15,3.69c2.45,9,4.12,18.84,7.38,27.06,4,2,4.7-.28,9.84,0,3.07,13.35,7.65,25.15,9.84,39.36-1.09,3-6.86,1.33-6.15,6.15,1.33,8.92,4.5,16,6.15,24.6,3.35,1.81,7.12-.86,8.61-1.23s2.55-.88,3.69-1.23c1.85-.55,3.77-.94,4.92-1.23.78-.19,1.7.2,2.46,0,10.57-2.77,20.1-5.89,29.52-8.61C238.5,188.38,244.18,187.17,249.71,185.18Zm-76.26,1.23c.05-4-1.82-9.46-2.46-11.07a4.6,4.6,0,0,1,0-1.23c-.07-1.3-1-.7-1.23-1.23-.71-1.74-.23-3.42-1.23-4.92-.64-1-2.83-1.6-3.69-2.46-2.43-2.43-3.5-3.79-6.15-4.92-3.26-1.4-9.58-2-11.07-3.69,2.46-6.68.69-15.72,0-18.45a10.58,10.58,0,0,0-1.23-3.69c-.88-1.38-1.6-2.35-2.46-3.69a14.88,14.88,0,0,0-4.92-4.92,9,9,0,0,1-2.46-2.46c-.44-.54-4.11-1.19-4.92-1.23-1.23-.06-.77-1.07-1.23-1.23-5.34-1.86-20.37-2.45-23.37,1.23-.27.33-2-.16-2.46,0-2.88,1.08-7.16,3.32-8.61,3.69s-1.64.22-2.46,1.23-5.39,1-6.15,1.23c-3.33,1.13-7.21,3.35-8.61,3.69-1.59.39-2.61,1-3.69,1.23-.73.19-1.77-.28-2.46,0s-1.78,2.09-2.46,2.46c-1.29.69-3,0-3.69,1.23-.17,12.47,5.41,19.19,8.61,28.29,5.07,1,6.31-1.89,11.07-1.23A200.42,200.42,0,0,0,92.27,184c1,2.49,1.81,5.52,2.46,7.38,1.16,3.27,3.46,6,2.46,9.84-1.52,1.52-4.62,3.34-4.92,3.69s-2.08-.38-2.46,0c-.61.62.23,2.7-1.23,2.46,1,9.65,4.83,16.48,7.38,24.6,3.17.16,14.91.37,17.22-2.46.27-.33,2,.16,2.46,0,2.88-1.08,7.16-3.33,8.61-3.69s1.64-.22,2.46-1.23c.27-.33,2,.16,2.46,0,2.88-1.08,7.16-3.33,8.61-3.69s1.64-.22,2.46-1.23c.09-.1,3.69-1.23,3.69-1.23,1.59-.39,2.61-1,3.69-1.23,1.59-.39,2.61-1,3.69-1.23.69-.17,1.83.32,2.46,0s1.75-2,2.46-2.46c1.06-.65,2.61-.43,3.69-1.23,1.76-1.3,2.87-3.91,3.69-4.92.35-.42,2.08.4,2.46,0s-.23-1.94,0-2.46,2.15-.76,2.46-1.23c.63-1,.86-2.88,1.23-3.69a11.74,11.74,0,0,0,1.23-2.46c.06-1.2,1.1-.82,1.23-1.23.47-1.45-.22-3.4,0-4.92C172.49,189.5,173.42,189.11,173.45,186.41Z"/><path id="path2576" d="M332.11,14.21c-.19,0,.74-1.1,1.25-1.23,3.24-.81,9.85-.57,14.76-1.23,1.05-.15,2-1,3.69-1.23,23.37-3.09,50.65-5.4,77.49-7.38,11.09-.83,22.91-.69,34.44-1.23,2-.1,2.09-1,3.69-1.23,12.66-1.53,27.88,0,41.82,0,28.51,0,54.51.49,81.18,2.46,13.43,1,26.79,1.13,39.36,2.46,1.23.13,2.73,1.07,4.92,1.23,21.47,1.54,46.93,5.14,68.88,8.61,31.26,4.93,58.47,10.54,87.34,17.22,2.89.66,5.56,1.78,8.61,2.46,2.62.58,5.94.54,8.61,1.23.3.07.11,1.17,1.23,1.23a4.6,4.6,0,0,1,1.23,0c5.27,2.1,15.21,4.18,22.14,6.15,2.69.76,2.53.33,6.15,1.23,1.57.39,4.84,1.52,8.61,2.46,1.08.27,2.1.84,3.69,1.23,1.08.27,2.1.84,3.69,1.23,1.15.28,3.07.68,4.92,1.23,1.14.34,2.05.82,3.69,1.23,1,.25.92,1.14,1.23,1.23,2.78.77,5.9.39,8.61,1.23.39.12,0,1.17,1.23,1.23a4.6,4.6,0,0,1,1.23,0,23.31,23.31,0,0,0,3.69,1.23c1.08.27,2.1.84,3.69,1.23,1.08.27,2.1.84,3.69,1.23,4,1,11.66,4.28,17.22,6.15,5.33,1.78,10.93,3,16,4.92.48.18,0,1.17,1.23,1.23a4.6,4.6,0,0,1,1.23,0,23.31,23.31,0,0,0,3.69,1.23c1.38.34,5.33,2.5,8.61,3.69,2.57.93,6.08,1.44,8.61,2.46.37.15.23,1,1.23,1.23.73.18,1.78-.3,2.46,0s1.88,2.23,2.46,2.46c2,.81,3.36.61,4.92,1.23,2,.79,4.27,1.23,7.38,2.46.37.15.25,1,1.23,1.23a31.89,31.89,0,0,1,4.92,1.23c1.17.47,2.74,1.56,4.92,2.46s5.27,1.55,7.38,2.46c.55.23-.09,1.16,1.23,1.23,1.9.1,8.13,4.18,11.07,4.92a30.13,30.13,0,0,1,6.15,2.46c1.82.84,4.59,1,7.38,2.46.79.43,1.77,2.09,2.46,2.46,2.31,1.24,3.8.9,6.15,2.46a25.34,25.34,0,0,1,6.15,6.15c-.24,3-.93,6.32-2.46,8.61-.29.44-.8,3.33-1.23,3.69-1,.82-.85.94-1.23,2.46,0,0-1.13,3.6-1.23,3.69s-1.15-.15-1.23,0c-.21.44.36,2.17,0,2.46-.15.12-1.15-.15-1.23,0-.21.44.36,2.17,0,2.46a24.53,24.53,0,0,0-3.69,6.15c-.18.44.35,2.18,0,2.46-.15.12-1.15-.15-1.23,0-.21.44.36,2.17,0,2.46-3.25,2.66-5.84,11.69-8.61,17.22-2.1,4.21-4.82,10.49-7.38,16-.93,2-3.58,5.29-3.69,7.38A25.5,25.5,0,0,1,986.5,195c-.92,2-3.58,5.28-3.69,7.38a25.5,25.5,0,0,1-1.23,3.69c-.27.59-2.32,2-2.46,2.46-.32,1.07.46,2.67,0,3.69-.37.84-2.07,1.76-2.46,2.46-.25.46.38,2.16,0,2.46-1.18,1-3.69,5.53-4.92,8.61-.17.45.35,2.18,0,2.46-1.54,1.26-4.48,7.44-6.15,11.07-3.31,7.2-5.87,13.51-9.84,22.14-.93,2-3.58,5.28-3.69,7.38-.1,1.76-1.91,2.71-2.46,4.92a38.91,38.91,0,0,1-2.46,7.38c-.28.59-1.16-.12-1.23,1.23,0,.29.14,1,0,1.23-.44.8-2.07,1.76-2.46,2.46-.25.46.38,2.16,0,2.46-2.34,1.92-6.26,5.53-13.47,3.71.32,0-1.33-1.27-1.29-1.25-.44-.29-3.33-.8-3.69-1.23a8.73,8.73,0,0,0-3.69-2.46c-.43-.16-2.19.34-2.46,0-.11-.13.15-1.16,0-1.23-.44-.19-2.18.35-2.46,0-.12-.14.15-1.15,0-1.23-.44-.2-2.17.36-2.46,0a8.73,8.73,0,0,0-3.69-2.46c-.43-.16-2.19.34-2.46,0-.11-.13.15-1.16,0-1.23-.44-.19-2.18.35-2.46,0-.12-.14.15-1.15,0-1.23-.44-.2-2.17.36-2.46,0-.82-1-.94-.84-2.46-1.23,0,0-3.6-1.12-3.69-1.23a29.44,29.44,0,0,0-7.38-3.69c-2.44-.6-3.67-1.83-6.15-2.46s-3.67-1.83-6.15-2.46c-4.07-1-8.69-3.08-13.53-4.92-.43-.16-2.19.34-2.46,0-.1-.12.12-1.18,0-1.23-3.4-1.23-6-1.16-9.84-2.46-.43-.14,0-1.16-1.23-1.23-2-.09-6.83-2.55-9.84-3.69-.43-.16-2.19.34-2.46,0-1.77-2.15-6.79-2.26-11.07-3.69-.43-.14,0-1.16-1.23-1.23-.47,0-5.49-.41-6.15-1.23-1.34-1.63-6.6-2.38-9.84-3.69-.45-.17-2.18.35-2.46,0-1.09-1.31-6.73-2.84-9.84-3.69-.41-.11-2.22.3-2.46,0-1.22-1.48-6.39-2.31-9.84-3.69-.45-.17-2.18.35-2.46,0-1.44-1.76-9-2.49-13.53-3.69-.08,0-.48-1-1.23-1.23-4.91-1.23-11.75-2.33-18.45-3.69-.19,0-.2-1.18-1.23-1.23-5.72-.29-11.69-2.2-18.45-3.69-2.29-.5-5-.75-7.39-1.23-.18,0-.19-1.18-1.23-1.23a43.4,43.4,0,0,1-8.61-1.23c-.39-.07-2.23.29-2.46,0-1-1.19-1.67-1-3.69-1.23-.36-.05-2.25.26-2.46,0-1.68-2.06-5.75.75-7.38-1.23-1-1.19-1.67-1-3.69-1.23-.36,0-2.25.26-2.46,0-1.68-2.06-5.75.75-7.38-1.23s-5.75.75-7.38-1.23-9.74-1.72-14.76-2.46c-1.1-.16-2-1-3.69-1.23-2.85-.29-6.36-.77-9.84-1.23a1066.73,1066.73,0,0,0-136.53-8.61c-108.39,0-197.42,15.05-284.14,40.59-27.78,8.2-55.56,17.56-82.41,28.29-.44.18-2.18-.34-2.46,0a8.49,8.49,0,0,1-3.69,2.46c-.43.16-2.19-.33-2.46,0-.1.13.12,1.18,0,1.23-2.11.78-4.18.42-6.15,1.23-.61.26-2,2.33-2.46,2.46-1.09.34-2.64-.43-3.69,0-.54.23.08,1.16-1.23,1.23-1.76.1-2.7,1.91-4.92,2.46a39.64,39.64,0,0,0-7.38,2.46c-.59.29.12,1.16-1.23,1.23a5.06,5.06,0,0,0-1.23,0c-8.2,3.58-17.44,9.84-23.37,8.61-3.9-.81-5.92-3.92-8.61-8.61-.76-1.31-.6-2.48-1.23-3.69C70,273.78,63.56,258.76,60.29,251.6c-.9-1.95-1.5-4.06-2.46-6.15-.27-.59-2.32-2-2.46-2.46-.32-1.05.47-2.69,0-3.69-.38-.83-2.07-1.76-2.46-2.46-.25-.45.38-2.15,0-2.46-.15-.12-1.14.16-1.23,0-.23-.45.37-2.15,0-2.46-.15-.12-1.16.15-1.23,0-.21-.44.36-2.16,0-2.46A8.49,8.49,0,0,1,48,225.77c-.16-.43.33-2.19,0-2.46-.14-.11-1.17.15-1.23,0-.2-.44.34-2.17,0-2.46-.15-.12-1.16.15-1.23,0-.21-.44.36-2.16,0-2.46-1.18-1-3.69-5.52-4.92-8.61-.17-.44.34-2.17,0-2.46-1.54-1.25-6.46-9.83-7.38-13.53a39.15,39.15,0,0,0-2.46-7.38c-.28-.59-1.16.13-1.23-1.23a4.6,4.6,0,0,0,0-1.23c-.27-.6-2.33-2-2.46-2.46-.33-1.08.43-2.64,0-3.69-.22-.54-1.16.08-1.23-1.23a26.33,26.33,0,0,0-1.23-3.69c-.38-.83-2.07-1.76-2.46-2.46-.25-.45.38-2.15,0-2.46-.14-.11-1.17.15-1.23,0-.89-2-.37-4.28-1.23-6.15-.38-.83-2.07-1.76-2.46-2.46-.25-.45.38-2.15,0-2.46-2.19-1.79-4-7.91-6.15-12.3-2-4-5.39-11.07-7.38-16a61.84,61.84,0,0,1-2.46-6.15C1,121.43.14,121.23,0,120c-.28-2.84,2.74-7,4.92-8.61a29.52,29.52,0,0,1,7.38-3.69c.72-.18,1.78.3,2.46,0s1.82-2.15,2.46-2.46c3.59-1.71,8.76-3,13.53-4.92.61-.26,2-2.32,2.46-2.46,1.08-.33,2.66.44,3.69,0,.61-.26,2-2.32,2.46-2.46,1.07-.32,2.67.46,3.69,0,.84-.37,1.76-2.07,2.46-2.46.45-.25,2.15.38,2.46,0,.82-1,.93-.85,2.46-1.23,2.16-.54,7.54-3.52,11.07-4.92C90.38,75.3,123.81,63.43,155,53.57c4.85-1.54,9.87-2.28,14.76-3.69.14,0,.43-1,1.23-1.23,2.33-.58,3.25-.79,4.92-1.23,5.65-1.51,11.88-3.06,18.45-4.92.42-.12,2.22.31,2.46,0,1.47-1.8,7.16-2.58,11.07-3.69.42-.12,2.22.31,2.46,0,1.23-1.5,8.38-2.58,12.3-3.69.42-.12,2.22.31,2.46,0,.91-1.11,4.75-1.69,8.61-2.46,1.17-.24,1.92-1,3.69-1.23,5.17-.54,11.79-2.25,18.45-3.69,4.14-.89,6.23-1.49,11.07-2.46.4-.08,2.24.28,2.46,0,.08-.09-.08-1.22,0-1.23,2.71-.54,5.9-.7,8.61-1.23,2.54-.49,4.85-.76,7.39-1.23C292.47,20.3,298,19,305.07,17.9c.78-.12,1.69.2,2.46,0a43.55,43.55,0,0,1,6.15-1.23c.36-.05,2.25.26,2.46,0C317.67,14.79,327,15,332.11,14.21ZM1000,126.14c.33-.71,2.18-1.55,1.23-3.69-2.85-2.07-5.24-4.6-9.84-4.92-11-6.9-24.5-10-36.9-16a11.74,11.74,0,0,0-2.46-1.23c-2.73-.15-1.71-2.29-4.92-2.46-1.34-.07-.65-1-1.23-1.23-1.82-.84-3.1-.53-4.92-1.23-5.19-2-9.72-4.66-14.76-6.15-3.56-1-7.49-1.17-11.07-2.46-2.3-.84-3.78-2.53-6.15-3.69s-5.08-1.35-7.38-2.46c-3.83-1.85-8.33-5.06-11.07-6.15a14.7,14.7,0,0,0-6.15-1.23c-1,0-1-1.19-1.23-1.23-6.8-1.4-13.9-1-20.91-2.46-4.81-1-9.66-3.54-14.76-4.92-3.4-.92-8.66-2.17-9.84-2.46-3.43-.86-4.85-.3-7.38-1.23-.52-.19-1.84-2.13-2.46-2.46-1.22-.65-2.72-.78-3.69-1.23-2.09-1-3.74-2.17-4.92-2.46-1.59-.39-2.61-1-3.69-1.23-1.59-.39-2.61-1-3.69-1.23-1.59-.39-2.61-1-3.69-1.23a22.63,22.63,0,0,1-3.69-1.23,4.6,4.6,0,0,0-1.23,0c-1.06-.05-1-1.18-1.23-1.23-4.92-1.07-11,0-16-1.23-3.6-.86-9.08-4.12-11.07-4.92A62,62,0,0,0,766.33,40C753.6,37.1,739,38.17,725.74,36.35c-2.82-.38-5.42-1.88-8.62-2.46-7.07-1.28-13.51-1.08-19.68-2.46-3-.67-5.72-2.18-8.61-2.46-7.68-.76-15.54.56-23.37,0-2.28-.17-2.75-.95-4.92-1.23-4.23-.56-6.12.29-7.38-1.23-.21-.26-2.09,0-2.46,0-13.05-1.56-23.15-5-34.44-6.15-4.54-.46-8.8.54-13.53,0-4.56-.52-9-3.35-13.53-3.69-1.86-.15-2.51,1-3.69,1.23-5.46,1-11.15.21-16,0-10.65-.47-20.15-1.47-30.75-1.23-2.2,0-4.3,1.23-6.15,1.23-2.3,0-4.81-1.19-7.38-1.23-11-.19-22.77-1.11-32,0-1.6.2-1.7,1.13-3.69,1.23-10.55.49-20.65.4-30.75,1.23-16.1,1.31-32,1.77-45.51,2.46-4.11.21-8.51-.27-11.07,0-1.64.17-2.7,1.15-3.69,1.23-12.19.95-27.33.26-35.67,2.46a78,78,0,0,1-14.76,2.46c-1,.05-1.11,1.2-1.23,1.23-8.05,1.39-19.79,2.24-24.6,3.69-1,.31-2.62,0-3.69,0a28.41,28.41,0,0,0-7.38,1.23c-2,.6-2.59-.12-3.69,1.23-.29.34-2-.17-2.46,0-4.43,1.77-9.3,1.71-14.76,2.46-4,.54-7.23,1.73-11.08,2.46-14.24,2.67-28.86,5.66-43.05,8.61-5.35,1.12-9.25,2.24-13.53,2.46-1.05.06-1,1.18-1.23,1.23-6.34,1.4-12.17,1.23-18.45,2.46-3.72.72-11.1,3.39-12.3,3.69A23.31,23.31,0,0,0,187,59.72a4.6,4.6,0,0,1-1.23,0c-1.26.06-.74,1-1.23,1.23-2.62,1-5.8,1.38-8.61,2.46-5.36,2.07-10.29,4.92-16,6.15-4.56,1-12.46,1.88-14.76,2.46-.72.18-1.78-.3-2.46,0s-1.74,2.1-2.46,2.46c-1.36.66-2.62.69-3.69,1.23s-.39,1.12-2.46,1.23c-1.28.06-.71,1-1.23,1.23-2.64,1-5.78.23-8.61,1.23-1.6.57-1.35,1.76-2.46,2.46-1.49,1-3.3.61-4.92,1.23-.52.2-.07,1-1.23,1.23-1.59.39-2.61,1-3.69,1.23-1.59.39-2.61,1-3.69,1.23-9.18,2.3-15.65,3.23-22.14,7.38-3.47.07-6.72-.2-11.07,1.23-.45.15-1.88,2.15-2.46,2.46-3.1,1.67-5,1.19-7.38,2.46-.69.37-1.65,2.07-2.46,2.46-2,1-5.36,1.54-7.38,2.46-.63.28-1.7,2.13-2.46,2.46-3,1.33-5.38.73-7.38,1.23-1.08.27-.75,1-1.23,1.23-2.09,1-3.74,2.17-4.92,2.46a23.31,23.31,0,0,0-3.69,1.23,31.89,31.89,0,0,1-4.92,1.23c-1,.25-.86,1.08-1.23,1.23-5,2-7,2-8.61,7.38-1.35,4.6,1.06,7.64,2.46,9.84,1.06,1.66,2.4,3.84,2.46,4.92.1,2,3.3,6.77,3.69,7.38,2.15,3.37,2.39,8.54,2.46,13.53,3.26,2,6.79,7.5,7.38,9.84.17.68-.32,1.86,0,2.46s2,1.66,2.46,2.46c.71,1.33.61,2.62,1.23,3.69,1.38,2.4,2.63,3.62,3.69,6.15.28.69-.18,1.74,0,2.46a53.88,53.88,0,0,0,2.46,6.15c1.59,4.25,2.73,6,3.69,9.84.39,1.58,2.39,2.19,2.46,3.69.11,2.13,3,3.42,3.69,4.92.84,1.81.41,3.18,1.23,4.92.3.64.91,0,1.23,1.23a23,23,0,0,0,1.23,3.69c1,2.6,1.59,4.26,2.46,6.15a12.24,12.24,0,0,1,1.23,2.46c.07,1.33,1,.67,1.23,1.23,1.19,2.67,1.33,6.08,2.46,8.61a12.62,12.62,0,0,1,1.23,1.23c1.65,2.59,2.15,4.36,3.69,6.15-1.29,4.67,3.73,8,4.92,9.84A12,12,0,0,1,81.2,259c.07,1.39.89.59,1.23,1.23,1.51,2.78,1.16,6.31,2.46,8.61a28.54,28.54,0,0,0,2.46,2.46c1.43,1.64,1.05,1.8,3.69,2.46,3.35.84,9.59-1.72,11.07-2.46,1.14-.56,1.66-2.1,2.46-2.46,2.66-1.2,4.83-1.2,7.38-2.46.65-.32,1.71-2.05,2.46-2.46a36.14,36.14,0,0,1,3.69-1.23c2.82-1.18,4.77-1.9,6.15-2.46,2.47-1,5.54-1.83,7.38-2.46a41.64,41.64,0,0,0,6.15-2.46,16.13,16.13,0,0,1,2.46-1.23c3-1.18,4.76-1.9,6.15-2.46a5.06,5.06,0,0,1,1.23,0c1.31-.07.7-1,1.23-1.23,8.05-3.29,15.36-4.56,23.37-7.38,5.28-1.85,12.45-5.9,17.22-6.15,1.2-.06.84-1.1,1.23-1.23,3.16-1,6.83-1.58,9.84-2.46,7-2,13.71-3.18,19.68-4.92a39.05,39.05,0,0,0,6.15-2.46,5.06,5.06,0,0,1,1.23,0c1.23-.06.78-1.07,1.23-1.23,3.42-1.19,6.89-1.61,9.84-2.46.13,0-.09-1.13,0-1.23.63-.62,4,.21,4.92,0,.1,0-.08-1.14,0-1.23.66-.65,4,.25,4.92,0,.11,0-.09-1.13,0-1.23.62-.61,4,.2,4.92,0a35.72,35.72,0,0,0,6.15-2.46,5.06,5.06,0,0,1,1.23,0c1.28-.06.72-1,1.23-1.23,1.78-.7,5,.65,4.92-2.46,3.5-.08,6.43.11,8.61,0,1-.05,1.14-1.22,1.23-1.23,10-1.62,22.53-4.4,29.53-6.15.77-.19,1.68.17,2.46,0,4-.87,6.76-1.84,8.61-3.69.92-.92,3.3,1.31,3.69,1.23,2.78-.55,6-2,8.61-2.46,3.35-.62,6.31-.75,9.84-1.23,12.62-1.72,26.1-3.06,38.13-3.69.91-.05,1.19-1.23,1.23-1.23,5.1-.69,10.43-.72,14.76-1.23,1.19-.13.76-1.06,1.23-1.23,1.13-.43,2.32,1.24,2.46,1.23,1-.07,1.07-1.19,1.23-1.23,1.3-.26,2.57,1.36,4.92,1.23.77,0,1.36-1.24,1.23-1.23,7.19-.48,13.55.52,16-2.46.58-.71,5.14.21,6.15,0,3.68-.76,7.33-2.16,11.07-2.46,3.37-.26,6.17,1.28,9.84,1.23-.42,0,.84-1.1,1.23-1.23,1-.31,2.62.05,3.69,0,6.78-.32,10.82-1.33,16-1.23,1.64,0,2.41,1.13,4.92,1.23,5.08.21,5.2-1.56,9.84-1.23,4.43.32,3.76,1.16,4.92,0,.5-.5,4.13,0,4.92,0,17.71-.85,32.3-1.17,48,0,5.86.43,10.52.51,13.53,1.23,5.17,1.24,5,.22,8.61,0a9.21,9.21,0,0,1,2.46,0c3.46.86,8,.89,12.3,1.23,6.48.53,13.38,2.17,19.68,2.46,5.29.25,7.36-1.72,11.07-1.23.88.11,1.15,1.22,1.23,1.23,1,.2,1.33-1.23,1.23-1.23,1.24,0,1.44,1,2.46,1.23,3.24.76,6.6-.21,8.61,0,1.69.17,2.62,1.11,3.69,1.23,5.21.63,14.6.76,16,2.46.21.26,2.09,0,2.46,0,6.58.94,13.94.24,17.22,1.23,4.43,1.34,7.37,1.58,11.07,2.46,2.4.58,5,.53,7.38,1.23,2.94.89,4.51,1.93,7.38,2.46,7.63,1.39,15.64,1.05,23.37,2.46a2.85,2.85,0,0,0,1.23,1.23c1.12.35,2.55-.24,3.69,0,5,1,14.17,4,17.23,4.92,2.09.63,3.49.67,4.92,1.23a4.22,4.22,0,0,0,1.23,0c1,.05,1,1.2,1.23,1.23,3.83.79,8.19.47,12.3,1.23,8,1.49,18.13,4.06,23.37,6.15a4.22,4.22,0,0,0,1.23,0c1.3.08.7,1,1.23,1.23,1.89.78,3,.63,4.92,1.23,4.35,1.38,10.5,3,12.3,3.69a4.22,4.22,0,0,0,1.23,0c1.18.06.85,1.11,1.23,1.23,3.07.94,7.41,1.11,9.84,1.23,1.17.06.86,1.12,1.23,1.23,3.07.9,6.33,2,7.38,2.46,2.42,1,5.57,1.92,7.38,2.46,3.38,1,7.49,1.25,11.07,2.46.18.06.51.95,1.23,1.23a4.22,4.22,0,0,0,1.23,0c1.23.06.77,1.07,1.23,1.23,2.13.74,4,.31,6.15,1.23a10,10,0,0,0,1.23,1.23c2.27,1.45,3.66,2.33,6.15,2.46,1.23.06.77,1.07,1.23,1.23,4.7,1.64,12,1.84,13.53,3.69.28.35,2-.17,2.46,0A54,54,0,0,0,877,251.6c.92.24,1,1.14,1.23,1.23,3.79,1.36,8.49,2.13,12.3,3.69.13.07-.11,1.1,0,1.23.36.43,3.25.94,3.69,1.23,2.37,1.59,6.37,1.34,8.61,2.46.66.34,1.52,1.92,2.46,2.46a66,66,0,0,1,6.15,3.69c5.83,4.36,12.85,6.56,19.68,8.61,4.42-4.82,6.19-15.86,9.84-19.68a8.73,8.73,0,0,0,2.46-3.69,10.58,10.58,0,0,1,1.23-3.69,50.27,50.27,0,0,0,4.92-9.84c1-2.84,1.14-6,2.46-8.61.31-.62,2-1.77,2.46-2.46a12,12,0,0,0,1.23-2.46c.07-1.41.79-.55,1.23-1.23,1.61-2.51,1.85-6.15,4.92-7.38.06-1.63-.09-3.28,0-4.92.06-1.08,1.17-1,1.23-1.23.27-1.17-.27-2.52,0-3.69.37-1.57,2.08-1.46,2.46-2.46s-.33-2.58,0-3.69c.14-.44,2.19-1.87,2.46-2.46,2.45-5.35,5.44-14.62,8.61-17.22.33-.27-.16-2,0-2.46a8.55,8.55,0,0,1,2.46-3.69c.38-.31-.25-2,0-2.46.39-.7,2.09-1.62,2.46-2.46.81-1.79.43-4.32,1.23-6.15.06-.15,1.1.11,1.23,0,.38-.31-.25-2,0-2.46.39-.7,2.06-1.63,2.46-2.46.83-1.68,1.5-4.24,2.46-6.15.7-1.38,2.1-2.26,2.46-3.69s.22-1.63,1.23-2.46c.43-.36.94-3.25,1.23-3.69,1.65-2.47,1.19-5.36,2.46-8.61,0-.13,1.11.1,1.23,0s1.23-3.69,1.23-3.69c.38-1.52.22-1.64,1.23-2.46C1000.39,128.31,999.82,126.58,1000,126.14Z"/><path id="path2578" class="cls-1" d="M663,33.89c-3.32-.36-8.55-.6-11.06-1.23-.3-.08-1.76-1.23-1.24-1.23-1.59,0-1.65,1.49-3.68,1.23a73.65,73.65,0,0,1-9.84-2.46,14.43,14.43,0,0,0-2.46,0A21.84,21.84,0,0,1,628.56,29c-6.15-1.54-14.68,1.86-17.22-1.23-.22-.28-2.06.07-2.46,0-5.09-1-8.3-.78-13.53-1.23s-12-2.23-16-1.23c-3.36.83-2.08.5-4.92,0-1.59-.28-3.32.18-4.92,0-9.67-1.11-26.58-5.4-32,0-1.71,1.71-12.55-.17-16,0-5,.26-10.23,1.24-14.76,1.23-8.18,0-16.13-1.11-24.6-1.23a336.19,336.19,0,0,0-35.67,1.23c-5.84.61-12.67,3.42-18.45,3.69-6.05.28-12.3-1.66-18.45-1.23-5.65.39-11.61,3-17.22,3.69-1.42.17-4.63,1.29-4.92,1.23-.46-.09.1-1.21-1.23-1.23A46.38,46.38,0,0,0,374,33.89c-6.76,1.62-14.51,2-20.91,2.46-2.25.16-3.62,1-4.92,1.23-8.93,1.28-19.66,1.79-27.06,2.46-2.16.2-3.71,1.09-4.92,1.23-6.65.74-13.84.16-19.68,1.23-5.47,1-10.69,3.36-16,4.92s-10.92,2.8-16,4.92c-4,.27-5.2-2.18-9.84-1.23-2.12,1.56-3.22,4.16-7.38,3.69-4.17,1.17-8.84-1.23-9.84-1.23.36,0-.73,1.11-1.23,1.23-4.1,1-6.52,1.76-9.84,2.46-3.47.72-6.77.54-9.84,1.23-5.19,1.16-10.07,3.44-14.76,3.69-1.14.06-.89,1.14-1.23,1.23-3.53,1-8.56,2.14-9.84,2.46-1.63.41-2.54.88-3.69,1.23-1.84.55-3.76,1-4.92,1.23a23.31,23.31,0,0,0-3.69,1.23,31.89,31.89,0,0,1-4.92,1.23c-2.26.57-4.07,1.7-6.15,2.46s-3.66,2.15-4.92,2.46c-3.47.87-3.75.07-6.15,1.23-3,1.46-3.81,3.94-6.15,4.92-1.62.69-3.82.86-4.92,1.23-2.72.91-5.64,1.56-8.61,2.46-1.94.59-4.49.81-6.15,1.23-.83.21-1,1.17-1.23,1.23-5.32,1.66-11.11,3.43-16,3.69-1.06.06-1,1.18-1.23,1.23-3.22.71-6.76.25-9.84,1.23-.39.12-.17,1-1.23,1.23a10.58,10.58,0,0,0-3.69,1.23,54.46,54.46,0,0,1-7.38,3.69,31.89,31.89,0,0,1-4.92,1.23c-1.86.47-2.24,1.09-4.92,1.23-1.21.06-.82,1.09-1.23,1.23-2,.65-2.95.63-4.92,1.23a48.82,48.82,0,0,0-4.92,1.23c-.55.21-1.8,2.12-2.46,2.46-1.73.89-3.19.44-4.92,1.23-2.76,1.24-5.13,2.55-7.38,3.69-.69.36.07.9-1.23,1.23-1.65.41-2.69.27-3.69,1.23a21.73,21.73,0,0,1-3.69,2.46c-2.58,1.65-4.35,2.15-6.15,3.69-3.63.89-7.61,1.4-9.84,3.69,1.39,6.82,2.79,13.6,7.38,17.22,1.41,11.76,6.9,21.78,12.3,32,1.48,2.79,2.05,3.58,3.69,4.92.38.32-.27,2,0,2.46.42.73,2,1.65,2.46,2.46.36.62-.3,1.81,0,2.46.2.46,2.19.69,2.46,1.23,1.19,2.36,1.39,6,2.46,8.61.25.59,2.14,1.74,2.46,2.46.74,1.68.77,3.74,1.23,4.92,2.45,6.35,5.29,14.41,7.38,19.68.6,1.52.39,3,1.23,4.92.26.59,2.1,1.76,2.46,2.46.89,1.74.42,3.2,1.23,4.92.3.64,2.08,1.71,2.46,2.46.89,1.74.42,3.2,1.23,4.92.3.64,2.12,1.69,2.46,2.46.85,1.93.42,3.5,1.23,4.92.39.7,2,1.71,2.46,2.46a12,12,0,0,1,1.23,2.46c.07,1.43.75.54,1.23,1.23,1.71,2.46,3,5.43,4.92,7.38,2.72.43,5.31-1.34,7.38-2.46.69-.37,1.69-2,2.46-2.46,1.59-.92,2.88-.3,4.92-1.23.63-.28,1.7-2.12,2.46-2.46,3-1.28,3.81-.65,6.15-1.23s4.38-1.84,6.15-2.46c12.56-4.4,26.78-9.26,38.13-13.53,2.82-1.05,3.48-2.32,6.15-2.46,1.22-.06.8-1.08,1.23-1.23,2.87-.94,6.07-.5,8.61-1.23.32-.1.24-1,1.23-1.23a22.33,22.33,0,0,0,3.69-1.23,5.06,5.06,0,0,1,1.23,0c1.25-.06.78-1.07,1.23-1.23,12.76-4.47,27.35-8.07,39.36-11.07,3.53-.88,4.8-2.26,8.61-2.46,1.15-.06.9-1.14,1.23-1.23,2.8-.76,5.91-.53,8.61-1.23a38.81,38.81,0,0,0,3.69-1.23c1.63-.56,2.76-.5,4.92-1.23.5-.17,1.81-2.17,2.46-2.46,3-1.28,3.82-.65,6.15-1.23,2.08-.51,4.6-2,6.15-2.46,5.12-1.53,11.48-3.45,16-3.69,1.06-.05,1-1.18,1.23-1.23,2.55-.56,5.71-.72,8.62-1.23,6.48-1.13,15.63-2.68,19.68-3.69.77-.19,1.67.14,2.46,0,7.74-1.3,15.42-2.33,23.37-3.69,4.29-.72,9.47-2.05,11.07-2.46a16.83,16.83,0,0,1,2.46,0,39.64,39.64,0,0,0,7.38-1.23c.73-.18,1.76.29,2.46,0,1.37-.54,1.51-2,2.46-2.46a38.71,38.71,0,0,1,8.61-2.46c1.18-.24,2.51.26,3.69,0s1.56-1.15,2.46-1.23c5.42-.44,10.56,1.28,16,1.23,1.52,0,2.54-1,4.92-1.23,14.45-1.29,27.11-1.26,40.59-2.46,15.48-1.36,31-1.14,46.74-1.23,19.26-.1,40.42-1.57,57.81,0,12.69,1.16,23.78.31,36.9,1.23,4.68.33,10,2,14.76,2.46,1.23.11,1.47-1.09,2.46-1.23,1.83-.24,2.56,1.13,3.69,1.23,2,.17,4.27-.47,6.15,0,.46.11,1.52,1.23,1.24,1.23,5.34.62,10.4.56,16,1.23,5.16.63,10.63,2.33,16,2.46,6.93.17,13.9-1.89,20.91-1.23,4,.38,11.54,2.43,13.53,3.69,2.88,1.83,7.86,1.68,12.3,2.46,1.57.29,1.79.95,3.69,1.23,4.75.69,7.29.89,9.84,1.23,1.62.21,3.31-.19,4.92,0a93.71,93.71,0,0,1,11.07,2.46c3.73.94,4.74.61,7.39,1.23,8.13,1.95,15.68,5.75,23.37,6.15,1.08.06,1,1.17,1.23,1.23,3.07.73,6.7.46,9.84,1.23s8.2,3.29,9.84,3.69c.76.2,1.69-.21,2.46,0,6.91,1.92,17.24,6.17,22.14,7.38.77.2,1.67-.13,2.46,0a52.78,52.78,0,0,1,12.3,3.69c2.76,1.12,3.51,2.33,6.15,2.46,1.2.06.81,1.1,1.23,1.23,6.05,2,12.46,1.91,18.45,3.69,7.93,2.35,18,8.21,24.6,9.84,3.76.94,7,2.07,8.61,2.46.76.2,1.7-.21,2.46,0,2.29.63,3.65,2.14,4.92,2.46a10.79,10.79,0,0,1,3.69,1.23c1.66,1.06,2.51.63,4.92,1.23a35.71,35.71,0,0,1,6.15,2.46c1.61.73,4.65,2.21,4.92,2.46a22.78,22.78,0,0,0,3.69,2.46c2.2,1.47,3.58.31,6.15,1.23.53.19,1.8,2.17,2.46,2.46,1.8.79,3.62.63,4.92,1.23.63.3,1.72,2.08,2.46,2.46,1.73.89,3.22.39,4.92,1.23.65.32,1.7,2.07,2.46,2.46,1.73.89,3.16.51,4.92,1.23,2.77-4,4.45-10.77,6.15-13.53.59-1,2.41-2.64,2.46-3.69.07-1.39.87-.57,1.23-1.23.7-1.25.48-2.27,1.23-3.69.26-.49,2.13-.66,2.46-1.23s-.16-1.82,0-2.46c.58-2.3,1.92-4,2.46-6.15.69-2.76,2.32-4.5,3.69-7.38.87-1.84,1.46-4.11,2.46-6.15,1.82-3.75,4.21-7.36,6.15-11.07,1.4-2.67,2.87-5.47,3.69-6.15.1-.08,1.23-3.69,1.23-3.69.38-1.52.22-1.63,1.23-2.46.38-.31-.25-2,0-2.46.39-.7,2-1.66,2.46-2.46.14-.23,0-1,0-1.23.07-1.39.87-.58,1.23-1.23,1.83-3.29,1.94-9.64,3.69-11.07.11-.08,1.23-3.69,1.23-3.69.38-1.52.22-1.63,1.23-2.46.36-.29-.21-2,0-2.46.07-.15,1.08.12,1.23,0,.38-.31-.26-2,0-2.46.1-.17,1.07.14,1.23,0,.41-.33-.31-2,0-2.46.66-1,1.78-1.19,2.46-2.46a40.09,40.09,0,0,1,2.46-3.69c1.46-2.2,1.21-5.66,2.46-8.61,3.38-8,8.8-14.41,9.84-23.37-2-3.86-7.12-6.7-9.84-7.38-1.59-.39-2.61-1-3.69-1.23-.72-.18-1.78.3-2.46,0s-1.73-2.13-2.46-2.46c-2.29-1-5.08-1.41-7.38-2.46-.61-.28-1.75-2.08-2.46-2.46a31.19,31.19,0,0,0-3.69-1.23c-3.89-1.56-8.35-2.23-11.07-3.69-.69-.37-1.69-2-2.46-2.46-1.3-.74-2.63-.57-3.69-1.23-.32-.2-.66-.86-1.23-1.23-2.47-1.65-6-1.41-9.84-2.46-.3-.07-.26-1-1.23-1.23-8.16-2-17.6-5.94-23.37-7.38-1.59-.39-2.61-1-3.69-1.23-.75-.18-1.74.26-2.46,0-4.26-1.51-9.39-5.42-12.3-6.15-1.59-.39-2.61-1-3.69-1.23-1.58-.39-4.2-1.19-4.92-1.23-1,0-1.11-1.21-1.23-1.23-4.33-.75-9,.55-13.53,0-3.65-3.21-9.08-4.65-13.53-6.15-3.25-1.1-7.25-1.81-9.84-2.46-.83-.21-1.06-1.18-1.23-1.23-4.27-1.3-8.13-1.44-12.3-2.46-7.11-1.73-15.11-4.7-20.91-6.15-.84-.21-1.06-1.18-1.23-1.23-5-1.53-10.51-2.28-16-3.69-2.37-.62-5.13-1.93-7.38-2.46-3-.71-5.76-.6-8.61-1.23-5.85-1.28-14-4.11-17.22-4.92-.77-.2-1.7.21-2.46,0-4-1.1-7.21-3.11-11.07-3.69-4.05-.6-9.24.45-13.53,0s-8.2-2.14-12.31-2.46C710,40.81,699.4,42.43,697.44,40c-.82-1-5,.76-6.15,0-1.72.52-2.66-1.18-3.69-1.23-1.75-.1-.43-1.48-1.23-2.46-.08-.11-3.69-1.23-3.69-1.23-4.81-1.21-15,.87-18.45,0C663.8,35,662.71,33.89,663,33.89Zm338.27,88.56c1,2.14-.9,3-1.23,3.69-.21.44.36,2.17,0,2.46-1,.82-.85.94-1.23,2.46,0,0-1.13,3.6-1.23,3.69s-1.18-.13-1.23,0c-1.27,3.25-.81,6.14-2.46,8.61-.29.44-.8,3.33-1.23,3.69-1,.83-.85.94-1.23,2.46s-1.76,2.31-2.46,3.69c-1,1.91-1.63,4.47-2.46,6.15-.4.83-2.07,1.76-2.46,2.46-.25.46.38,2.15,0,2.46-.13.11-1.17-.15-1.23,0-.8,1.83-.42,4.36-1.23,6.15-.37.84-2.07,1.76-2.46,2.46-.25.46.38,2.15,0,2.46a8.55,8.55,0,0,0-2.46,3.69c-.16.43.33,2.19,0,2.46-3.17,2.6-6.16,11.87-8.61,17.22-.27.59-2.32,2-2.46,2.46-.33,1.11.41,2.62,0,3.69s-2.09.89-2.46,2.46c-.27,1.17.27,2.52,0,3.69-.06.25-1.17.15-1.23,1.23-.09,1.64.06,3.29,0,4.92-3.07,1.23-3.31,4.87-4.92,7.38-.44.68-1.16-.18-1.23,1.23a12,12,0,0,1-1.23,2.46c-.45.69-2.15,1.84-2.46,2.46-1.32,2.65-1.43,5.77-2.46,8.61a50.27,50.27,0,0,1-4.92,9.84,10.58,10.58,0,0,0-1.23,3.69,8.73,8.73,0,0,1-2.46,3.69c-3.65,3.82-5.42,14.86-9.84,19.68-6.83-2.05-13.85-4.25-19.68-8.61a66,66,0,0,0-6.15-3.69c-.94-.54-1.8-2.12-2.46-2.46-2.24-1.12-6.24-.87-8.61-2.46-.44-.29-3.33-.8-3.69-1.23-.11-.13.13-1.16,0-1.23-3.81-1.56-8.51-2.33-12.3-3.69-.28-.09-.31-1-1.23-1.23a54,54,0,0,1-7.38-2.46c-.44-.17-2.18.35-2.46,0-1.51-1.85-8.83-2-13.53-3.69-.46-.16,0-1.17-1.23-1.23-2.49-.13-3.88-1-6.15-2.46a10,10,0,0,1-1.23-1.23c-2.17-.92-4-.49-6.15-1.23-.46-.16,0-1.17-1.23-1.23a4.22,4.22,0,0,1-1.23,0c-.72-.28-1.05-1.17-1.23-1.23-3.58-1.21-7.69-1.44-11.07-2.46-1.81-.54-5-1.49-7.38-2.46-1-.42-4.31-1.56-7.38-2.46-.37-.11-.06-1.17-1.23-1.23-2.43-.12-6.77-.29-9.84-1.23-.38-.12,0-1.17-1.23-1.23a4.22,4.22,0,0,1-1.23,0c-1.8-.71-8-2.31-12.3-3.69-1.9-.6-3-.45-4.92-1.23-.53-.22.07-1.15-1.23-1.23a4.22,4.22,0,0,1-1.23,0c-5.24-2.09-15.39-4.66-23.37-6.15-4.11-.76-8.47-.44-12.3-1.23-.2,0-.2-1.18-1.23-1.23a4.22,4.22,0,0,1-1.23,0c-1.43-.56-2.83-.6-4.92-1.23-3.06-.92-12.27-3.88-17.23-4.92-1.14-.24-2.57.35-3.69,0a2.85,2.85,0,0,1-1.23-1.23c-7.73-1.41-15.74-1.07-23.37-2.46-2.87-.53-4.44-1.57-7.38-2.46-2.36-.7-5-.65-7.38-1.23-3.7-.88-6.64-1.12-11.07-2.46-3.28-1-10.64-.29-17.22-1.23-.37,0-2.25.26-2.46,0-1.39-1.7-10.78-1.83-16-2.46-1.07-.12-2-1.06-3.69-1.23-2-.21-5.37.76-8.61,0-1-.23-1.22-1.18-2.46-1.23.1,0-.27,1.43-1.23,1.23-.08,0-.35-1.12-1.23-1.23-3.71-.49-5.78,1.48-11.07,1.23-6.3-.29-13.2-1.93-19.68-2.46-4.29-.34-8.84-.37-12.3-1.23a9.21,9.21,0,0,0-2.46,0c-3.59.22-3.44,1.24-8.61,0-3-.72-7.67-.8-13.53-1.23-15.67-1.17-30.26-.85-48,0-.79,0-4.42-.5-4.92,0-1.16,1.16-.49.32-4.92,0-4.64-.33-4.76,1.44-9.84,1.23-2.51-.1-3.28-1.19-4.92-1.23-5.17-.1-9.21.91-16,1.23-1.07.05-2.67-.31-3.69,0-.39.13-1.65,1.23-1.23,1.23-3.67.05-6.47-1.49-9.84-1.23-3.74.3-7.39,1.7-11.07,2.46-1,.21-5.57-.71-6.15,0-2.44,3-8.8,2-16,2.46.13,0-.46,1.2-1.23,1.23-2.35.13-3.62-1.49-4.92-1.23-.16,0-.24,1.16-1.23,1.23-.14,0-1.33-1.66-2.46-1.23-.47.17,0,1.1-1.23,1.23-4.33.51-9.66.54-14.76,1.23,0,0-.32,1.18-1.23,1.23-12,.63-25.51,2-38.13,3.69-3.53.48-6.49.61-9.84,1.23-2.65.49-5.83,1.91-8.61,2.46-.39.08-2.77-2.15-3.69-1.23-1.85,1.85-4.59,2.82-8.61,3.69-.78.17-1.69-.19-2.46,0-7,1.75-19.55,4.53-29.53,6.15-.09,0-.27,1.18-1.23,1.23-2.18.11-5.11-.08-8.61,0,.08,3.11-3.14,1.76-4.92,2.46-.51.2.05,1.17-1.23,1.23a5.06,5.06,0,0,0-1.23,0,35.72,35.72,0,0,1-6.15,2.46c-.91.2-4.3-.61-4.92,0-.09.1.11,1.21,0,1.23-.94.25-4.26-.65-4.92,0-.08.09.1,1.21,0,1.23-.92.21-4.29-.62-4.92,0-.09.1.13,1.2,0,1.23-2.95.85-6.42,1.27-9.84,2.46-.45.16,0,1.17-1.23,1.23a5.06,5.06,0,0,0-1.23,0,39.05,39.05,0,0,1-6.15,2.46c-6,1.74-12.71,2.89-19.68,4.92-3,.88-6.68,1.48-9.84,2.46-.39.13,0,1.17-1.23,1.23-4.77.25-11.94,4.3-17.22,6.15-8,2.82-15.32,4.09-23.37,7.38-.53.22.08,1.16-1.23,1.23a5.06,5.06,0,0,0-1.23,0c-1.39.56-3.15,1.28-6.15,2.46a16.13,16.13,0,0,0-2.46,1.23,41.64,41.64,0,0,1-6.15,2.46c-1.84.63-4.91,1.48-7.38,2.46-1.38.56-3.33,1.28-6.15,2.46a36.14,36.14,0,0,0-3.69,1.23c-.75.41-1.81,2.14-2.46,2.46-2.55,1.26-4.72,1.26-7.38,2.46-.8.36-1.32,1.9-2.46,2.46-1.48.74-7.72,3.3-11.07,2.46-2.64-.66-2.26-.82-3.69-2.46a28.54,28.54,0,0,1-2.46-2.46c-1.3-2.3-1-5.83-2.46-8.61-.34-.64-1.16.16-1.23-1.23A12,12,0,0,0,80,256.52c-1.19-1.79-6.21-5.17-4.92-9.84-1.54-1.79-2-3.56-3.69-6.15a12.62,12.62,0,0,0-1.23-1.23c-1.13-2.53-1.27-5.94-2.46-8.61-.26-.56-1.16.1-1.23-1.23A12.24,12.24,0,0,0,65.21,227c-.87-1.89-1.43-3.55-2.46-6.15a23,23,0,0,1-1.23-3.69c-.32-1.25-.93-.59-1.23-1.23-.82-1.74-.39-3.11-1.23-4.92-.7-1.5-3.58-2.79-3.69-4.92-.07-1.5-2.07-2.11-2.46-3.69-1-3.82-2.1-5.59-3.69-9.84a53.88,53.88,0,0,1-2.46-6.15c-.18-.72.28-1.77,0-2.46-1.06-2.53-2.31-3.75-3.69-6.15-.62-1.07-.52-2.36-1.23-3.69-.43-.8-2.09-1.77-2.46-2.46s.17-1.78,0-2.46c-.59-2.34-4.12-7.82-7.38-9.84-.07-5-.31-10.16-2.46-13.53-.39-.61-3.59-5.41-3.69-7.38-.06-1.08-1.4-3.26-2.46-4.92-1.4-2.2-3.81-5.24-2.46-9.84,1.57-5.35,3.57-5.39,8.61-7.38.37-.15.25-1,1.23-1.23a31.89,31.89,0,0,0,4.92-1.23,23.31,23.31,0,0,1,3.69-1.23c1.18-.29,2.83-1.49,4.92-2.46.48-.22.15-1,1.23-1.23,2-.5,4.35.1,7.38-1.23.76-.33,1.83-2.18,2.46-2.46,2-.92,5.34-1.45,7.38-2.46.81-.39,1.77-2.09,2.46-2.46,2.36-1.27,4.28-.79,7.38-2.46.58-.31,2-2.31,2.46-2.46,4.35-1.43,7.6-1.16,11.07-1.23,6.49-4.15,13-5.08,22.14-7.38,1.08-.27,2.1-.84,3.69-1.23,1.08-.27,2.1-.84,3.69-1.23,1.16-.28.71-1,1.23-1.23,1.62-.62,3.43-.28,4.92-1.23,1.11-.7.86-1.89,2.46-2.46,2.83-1,6-.18,8.61-1.23.52-.2-.05-1.17,1.23-1.23,2.07-.11,1.35-.66,2.46-1.23s2.33-.57,3.69-1.23c.72-.36,1.87-2.2,2.46-2.46s1.74.18,2.46,0c2.3-.58,10.2-1.48,14.76-2.46,5.7-1.23,10.63-4.08,16-6.15,2.81-1.08,6-1.49,8.61-2.46.49-.19,0-1.17,1.23-1.23a4.6,4.6,0,0,0,1.23,0,23.31,23.31,0,0,1,3.69-1.23c1.2-.3,8.58-3,12.3-3.69,6.28-1.23,12.11-1.06,18.45-2.46.24-.05.18-1.17,1.23-1.23,4.28-.22,8.18-1.34,13.53-2.46C250.37,45.7,265,42.71,279.23,40c3.85-.73,7.1-1.92,11.08-2.46,5.46-.75,10.33-.69,14.76-2.46.44-.17,2.17.34,2.46,0,1.1-1.35,1.68-.63,3.69-1.23a28.41,28.41,0,0,1,7.38-1.23c1.07,0,2.66.31,3.69,0,4.81-1.45,16.55-2.3,24.6-3.69.12,0,.25-1.18,1.23-1.23a78,78,0,0,0,14.76-2.46c8.34-2.2,23.48-1.51,35.67-2.46,1-.08,2.05-1.06,3.69-1.23,2.56-.27,7,.21,11.07,0,13.52-.69,29.41-1.15,45.51-2.46,10.1-.83,20.2-.74,30.75-1.23,2-.1,2.09-1,3.69-1.23,9.21-1.11,20.93-.19,32,0,2.57,0,5.08,1.23,7.38,1.23,1.85,0,4-1.18,6.15-1.23,10.6-.24,20.1.76,30.75,1.23,4.84.21,10.53,1,16,0,1.18-.21,1.83-1.38,3.69-1.23,4.58.34,9,3.17,13.53,3.69,4.73.54,9-.46,13.53,0,11.29,1.12,21.39,4.59,34.44,6.15.37,0,2.25-.26,2.46,0,1.26,1.52,3.15.67,7.38,1.23,2.17.28,2.64,1.06,4.92,1.23,7.83.56,15.69-.76,23.37,0,2.89.28,5.65,1.79,8.61,2.46,6.17,1.38,12.61,1.18,19.68,2.46,3.2.58,5.8,2.08,8.62,2.46C739,38.17,753.6,37.1,766.33,40a62,62,0,0,1,8.61,2.46c2,.8,7.47,4.06,11.07,4.92,5,1.2,11.07.16,16,1.23.22.05.17,1.18,1.23,1.23a4.6,4.6,0,0,1,1.23,0,22.63,22.63,0,0,0,3.69,1.23c1.08.27,2.1.84,3.69,1.23,1.08.27,2.1.84,3.69,1.23,1.08.27,2.1.84,3.69,1.23,1.18.29,2.83,1.49,4.92,2.46,1,.45,2.47.58,3.69,1.23.62.33,1.94,2.27,2.46,2.46,2.53.93,4,.37,7.38,1.23,1.18.29,6.44,1.54,9.84,2.46,5.1,1.38,10,3.89,14.76,4.92,7,1.51,14.11,1.06,20.91,2.46.2,0,.2,1.18,1.23,1.23a14.7,14.7,0,0,1,6.15,1.23c2.74,1.09,7.24,4.3,11.07,6.15,2.3,1.11,4.91,1.25,7.38,2.46s3.85,2.85,6.15,3.69c3.58,1.29,7.51,1.41,11.07,2.46,5,1.49,9.57,4.15,14.76,6.15,1.82.7,3.1.39,4.92,1.23.58.26-.11,1.16,1.23,1.23,3.21.17,2.19,2.31,4.92,2.46a11.74,11.74,0,0,1,2.46,1.23c12.4,6,25.93,9.09,36.9,16C996,117.85,998.41,120.38,1001.26,122.45Z"/><path id="path2580" class="cls-2" d="M958.21,142.13c.25,3,.12,5.35-1.23,7.38-1,1.51-2.4,6.32-4.92,8.61.55,6.3-2.94,8.54-3.69,13.53-8.36.58-11-4.54-18.45-4.92-.91-6.89-.55-15-8.61-14.76a5.78,5.78,0,0,1-3.69,1.23c-1.42,3.65-.8,6.19,1.23,9.84.36.65,1.16-.16,1.23,1.23.11,2.08,3.57,2.5,3.69,4.92.05,1,2.45,3.13,3.69,4.92,5.82,8.43,12.58,18.55,8.61,34.44-.27,1.09-.84,2.11-1.23,3.69-.69,2.77-5.36,10.64-8.61,13.53-1,.88-2.56.38-3.69,1.23-.53.4-.73,2.16-1.23,2.46s-2.14-.38-2.46,0c-.12.15.15,1.16,0,1.23-.44.21-2.17-.35-2.46,0-.1.13.12,1.18,0,1.23a33.58,33.58,0,0,1-8.61,1.23,34.5,34.5,0,0,1-9.84-1.23c-.44-.14,0-1.17-1.23-1.23-2.85-.14-3.81-3-6.15-4.92-.43-.34-2.13.41-2.46,0-.53-.65-.64-1.84-1.23-2.46-2.19-2.28-4.16-6.05-4.92-6.15-2.61-.32-2.3,5-7.38,3.69-3.13-4.25-12.15-2.6-14.76-7.38-1.55-4.87,1.82-12.35,4.92-17.22A9.4,9.4,0,0,1,866,195c1.35-3.44,1.31-7.82,2.46-11.07.16-.45,1.17,0,1.23-1.23a4.6,4.6,0,0,1,0-1.23c.55-1.38,2.15-2.8,2.46-6.15,5.73-.81,7.9,1.95,12.3,2.46,1.31,3.2,7.29,1.72,8.61,4.92,3.86,3.77-2,10.42,1.23,13.53,2.39,5.57,10.13,5.57,13.53,1.23-1.18-1,1.54-6.12,0-7.38-.11-.1-1.19.13-1.23,0-.14-.43.32-2.2,0-2.46-.15-.12-1.16.15-1.23,0-.21-.44.36-2.16,0-2.46-.16-.13-1.14.17-1.23,0-.94-1.71-1.49-3.56-2.46-4.92-.47-.64-2-.64-2.46-1.23-.33-.43.4-2.13,0-2.46-.19-.15-1.11.19-1.23,0a64.53,64.53,0,0,1-4.92-9.84c-.23-.55-1.16.09-1.23-1.23-.14-2.57-2.31-6-2.46-9.84a14.24,14.24,0,0,1,0-3.69,2.8,2.8,0,0,1,1.23-1.23c.29-1.91-.58-4.32,0-6.15.12-.4,1.17,0,1.23-1.23A11.74,11.74,0,0,1,893,140.9a21.11,21.11,0,0,1,4.92-7.38c2.85-2.85,4-3,8.61-4.92.53-.22-.07-1.16,1.23-1.23a4.6,4.6,0,0,0,1.23,0c1.39-.55,9.3-1.91,13.53-1.23.09,0,.28,1.18,1.23,1.23,2.42.12,3.44.25,4.92,1.23.57.37.91,1,1.23,1.23a55.86,55.86,0,0,1,8.61,6.15c4.18-1,7.8-1,11.07,1.23.44.3,3.33.8,3.69,1.23S956.88,140.68,958.21,142.13Z"/><path id="path2582" class="cls-2" d="M904.09,110.15a9.21,9.21,0,0,1,0,2.46c-.21.84-1.21,1.11-1.23,1.23-.3,1.48.54,3.53,0,4.92-.2.5-1.17-.05-1.23,1.23s-7.2,10.16-8.61,11.07c-.44.28-2.14-.39-2.46,0-1.37,1.67-1.1,1.81-3.69,2.46-1.88.47-6.09,2.4-9.84-1.23.27-5.47,8-3.49,8.61-8.61-.42-3.27-3.22-4.16-6.15-4.92.2-1.43-.27-2.19-1.23-2.46-1.1-5.47-2-7.1,1.23-12.3,1.82-2.94,2.72-4.06,6.15-4.92.71-.17,5.15-2,8.61-1.23.21.05.18,1.18,1.23,1.23,2.72.15,6.19,4.1,7.38,7.38A16.26,16.26,0,0,1,904.09,110.15Z"/><path id="path2584" class="cls-2" d="M872.11,108.92a107,107,0,0,1-8.61,29.52h-8.61a80.21,80.21,0,0,0-11.07,7.38c-.37.31-.9,2.31-1.23,2.46-.56.25-2-.39-2.46,0-2.7,2.33-5.4,6.63-8.61,9.84-.79.79-3.18,1.55-3.69,2.46-.69,1.22-.67,4.25-1.23,6.15-.11.37-1.17.06-1.23,1.23s0,2.46,0,3.69c-.91,4.2,4.54,2,4.92,4.92-1.18,1,1.53,6.13,0,7.38s-1.28,4-2.46,7.38a35.43,35.43,0,0,1-6.15,11.07c-12.7-3.29-25.89-6.09-36.9-11.07-.36-10.6,3-17.49,6.15-24.6,2.57-2.68,3.5.62,7.38,0,1-3.28,1.21-6.22,2.46-9.84.91-2.63,3.47-5.64,3.69-8.61.11-1.5-.88-5.39-1.23-7.38a188,188,0,0,0-4.92-19.68c0-3.73-6.19-1.19-6.15-4.92.55-10.52,4-18.12,6.15-27.06,7.76-1,14.24,2.8,20.91,4.92,5.18,1.65,10.75,1.6,14.76,4.92.22,10.06-5,14.67-6.15,23.37a8,8,0,0,1-6.15,1.23c-.65,6.4,1.62,9.85,2.46,14.76,5.73-.82,6-7.13,11.07-8.61,1.08-4-4.06-1.68-3.69-4.92,1.08-4.26,2.14-8.52,4.92-11.07.8-4.94,1.33-10.15,3.69-13.53C851.68,102.29,861.17,106.33,872.11,108.92Z"/><path id="path2586" class="cls-2" d="M783.55,100.31c.21,3.94,3,8.17,2.46,14.76-.25,2.8-1.81,7.26-2.46,9.84-.94,3.76-2.33,4.29-3.69,8.61-3.09,2.66-7.61,3.88-9.84,7.38,1.12,6.68,3.5,12.07,4.92,18.45,1,3.1,6.48,1.71,8.61,3.69.12,5,.19,10-2.46,12.3a28.73,28.73,0,0,1-2.46,13.53c-5.51.63-10.19-1.45-14.76-2.46-4.84-1.07-9.78-1-13.53-3.69-3-4.93-2.76-13.38-3.69-20.91-.42-3.37-.5-8.13-1.23-11.07s-.82-7.82-4.92-7.38c-4-1.11-1.74,4-3.69,4.92-1.67,6.18,4.21,4.8,4.92,8.61,0,4.92-2.46,7.38-2.46,12.3-2.14,2.94-.21,8.83-3.69,11.07-3.34.57-6.84-1.25-9.84-2.46-.45-.17-2.18.35-2.46,0-1-1.19-1.68-1-3.7-1.23-.36,0-2.25.26-2.46,0-1-1.19-1.67-1-3.69-1.23-.36-.05-2.25.26-2.46,0-.07-.1.09-1.22,0-1.23-3.8-.77-7.9.37-11.07-2.46-2.41-3.31.52-8.08,1.23-12.3.2-1.18-.25-2.51,0-3.69.23-1,1-1.24,1.23-2.46.32-1.89-1.37-4.77,1.23-6.15-1.13-4.82,6.49-.9,7.38-3.69,2.61-13,5.55-25.62,7.38-39.36-1-2.37-5.39-1.21-7.38-3.69-.41-.53,0-1.55-1.23-1.23,1.65-10.25,5.6-18.18,6.15-29.52,2.39-.48,7,.48,11.08,1.23,7.08,1.29,14,2.88,22.14,4.92,1.08.27,2.1.84,3.69,1.23,1.08.27,2.1.84,3.69,1.23a79.1,79.1,0,0,1,8.61,3.69,54.67,54.67,0,0,1,6.15,3.69c1.08.74,1.56,1.77,2.46,2.46.66.5,3.08.59,3.69,1.23.38.39-.42,2.12,0,2.46,1,.82,3.56,1.43,3.69,3.69C781.18,97.16,783.42,98.05,783.55,100.31ZM754,121.22c4-1.46,4.18-2.67,6.15-4.92-1-6.4-5.72-9-12.3-9.84-1.78,4-2.35,9.13-3.69,13.53C747.49,122.6,750.2,122.6,754,121.22Z"/><path id="path2588" d="M760.18,116.3c-2,2.25-2.11,3.46-6.15,4.92-3.83,1.38-6.54,1.38-9.84-1.23,1.34-4.4,1.91-9.56,3.69-13.53C754.46,107.26,759.19,109.9,760.18,116.3Z"/><path id="path2590" class="cls-2" d="M696.21,144.59a147.2,147.2,0,0,1-2.46,25.83c-11.15.09-20.51-1.62-29.52-3.69-.78-1-.25-4.12-1.23-4.92-1.35-1.11-.62-1.68-1.23-3.69-1.42-4.71-2.8-15.79-4.92-22.14-.87-2.61-.25-7.95-4.92-7.38-4.19-.1-3.64,4.56-3.69,8.61,3,.64,4.38,3,6.15,4.92-1.35,3.57-1.1,8.73-2.46,12.3.4,4.91.06,9.09-2.46,11.07-4.3,1-7.75-1.73-12.3-2.46-8.21-1.3-17.83,0-24.6-3.69.83-8.2.59-17.45,2.46-24.6-.83-3.15,2.11-1.66,3.69-2.46s2.06-1.93,3.69-2.46c.77-13.58,3.51-25.19,3.69-39.36-1.45-2.24-6.41-1-8.61-2.46.19-11.3,2.59-20.37,3.69-30.75,5.59-.52,16.56.41,23.37,1.23.37,0,2.25-.26,2.46,0,1,1.19,1.68,1,3.69,1.23.37.05,2.25-.26,2.46,0,1,1.19,1.68,1,3.69,1.23.37,0,2.25-.26,2.46,0,.68.84,2.93,1.61,6.15,2.46,2.57.68,6.25,1.34,8.61,2.46.59.28-.12,1.16,1.23,1.23,1.78.1,2.66,2.34,4.92,2.46.21,0,5.87,4.14,7.38,6.15.34.43-.4,2.13,0,2.46.18.15,1.11-.18,1.23,0,1,1.57,1.55,4.06,2.46,6.15s2.27,3.78,2.46,4.92a62.11,62.11,0,0,1,0,16s-1.18.31-1.23,1.23a13.62,13.62,0,0,1-2.46,7.38c-.44.68-1.15-.18-1.23,1.23-.14,2.87-5.67,5-8.61,7.38,1.74,6.46,5.58,10.84,6.15,18.45C688.77,143,693.26,143,696.21,144.59Zm-43.05-39.36c8.53,3.67,16.35-1.6,14.76-8.61-.94-4.19-6.5-5.65-12.3-6.15C654.22,94.81,654.27,100.59,653.16,105.23Z"/><path id="path2592" d="M667.92,96.62c1.59,7-6.23,12.28-14.76,8.61,1.11-4.64,1.06-10.42,2.46-14.76C661.42,91,667,92.43,667.92,96.62Z"/><path id="path2594" class="cls-2" d="M608.88,56c-.42,11.48,1.07,24.86-1.23,34.44-8.61-.59-14.78,2.77-22.14,0V81.86a8,8,0,0,1-6.15-1.23c-5.26.89-.28,12-3.69,14.76,3,2.34,10.3.37,13.53,2.46.74,7.29-2.15,11-1.23,18.45-2.57,1.94-8.17.85-11.07,2.46,1.5,7.38-4.09,14.38,3.69,14.76,5.18.78,2.73-3.54,3.69-7.38.41-1.62,2.19-1.93,2.46-3.69,6.53,1.27,15.14.43,20.91,2.46,1.66,4.59-.66,11.64-1.23,18.45-.44,5.36,1.16,10.79-1.23,14.76-4.94,3.24-10.19.21-16,0-5.56-.2-11.2.28-17.22,0-1.84-.08-4.22-1-6.15-1.23-2.74-.27-5.87.26-8.61,0-5-.48-14-1.09-20.91-2.46.59-8.84.65-18.2,2.46-25.83-1.24-3.7,2.74-2.18,4.92-2.46,1.61-.43,1.93-2.16,3.69-2.46-.42-14,2.09-25,2.46-38.13-1-3.1-6.48-1.71-8.61-3.69-2.9-8.57,2.33-15.44,1.23-25.83-.34-2,1.17-2.12,1.23-3.69C565.77,53.22,588,54,608.88,56Z"/><path id="path2596" class="cls-2" d="M535.08,76.94c.37,4.46-6.56,1.65-8.61,3.69.1,18.11,3.68,32.68,1.23,46.74-.16.89.59,4.33,0,4.92-.1.1-1.2-.11-1.23,0-.93,3.6-1,7.1-2.46,9.84-.43.79-1.83,1.43-2.46,2.46a22.34,22.34,0,0,1-8.61,7.38c-2.28,1.16-4.56,1.34-7.38,2.46-2.34.94-15.61,2.39-22.14,1.23-.14,0-.25-1.18-1.23-1.23-2.68-.15-3.06-.76-4.92-1.23a10.17,10.17,0,0,1-4.92-2.46c-4.77-3.65-7.16-5.71-9.84-13.53-1.85-5.39-3-15.07-1.23-22.14.42-1.67.42-2.47,1.23-3.69.54-.81,1.07-3.38,2.46-4.92,3.5-3.89,13-7.4,19.68-6.15.16,0,.22,1.18,1.23,1.23,3.81.2,5.14,1.44,7.38,4.92.43.68,1.16-.18,1.23,1.23.21,3.9,3.27,8.52-1.23,13.53-.22,3.47-5.84,1.54-4.92,6.15,3.53.26,6.25-.31,7.38-2.46,2.55.35.89-3.63,2.46-4.92,1.41-1.16,0-3.69,1.23-4.92,1.84-1.84-.2-3.43,0-8.61.32-8.61,3-18.52-1.23-24.6-9-.87-16.15,3.28-22.14-1.23-2.19-7-1.76-21.22,0-28.29,1-.23,1.23-1.23,2.46-1.23h55.35C536.52,57.46,534.4,68.6,535.08,76.94Z"/><path id="path2598" class="cls-2" d="M453.9,80.63c.76,4.74.63,13.37,0,16-.06.26-1.17.15-1.23,1.23a12.25,12.25,0,0,1-1.23,2.46c-2.14,4.64-7.14,7.63-11.07,12.3,1.75,4.51,3.28,8.84,2.46,16-.37,3.19-2.56,8.62-3.69,11.07-.38.84-.59,2.68-1.23,3.69s-3,1.45-3.69,2.46c-.83,1.18-.28,2.72-1.23,3.69-.68.7-1.6.68-2.46,1.23s-2.23,2.67-3.69,3.69c-.44.31-2.13-.4-2.46,0-2.72,3.33-7.35,4.54-13.53,6.15-.31.09-.11,1.17-1.23,1.23a28.4,28.4,0,0,0-3.69,0c-5.53,1.05-17.21,1.64-24.6,0-3.43-.76-5.83-1.14-8.61-2.46-.59-.28.12-1.15-1.23-1.23-1.58-.08-1.55-2.05-2.46-2.46-.59-.27-1.95.38-2.46,0s-7.3-6.94-7.38-8.61c-.05-1-1.87-2.72-2.46-3.69a29.35,29.35,0,0,1-2.46-4.92c-.18-.44.34-2.18,0-2.46-1.54-1.25-.64-2.57-1.23-7.38-.27-2.16-1.29-4.11-1.23-6.15.46-14.67,7.76-21.59,17.22-29.52-3.27-5.12-6-9.05-6.15-14.76a13.81,13.81,0,0,1,0-3.69c.19-.65,1.19-1.23,1.23-1.23.26-1.44-.56-3.57,0-4.92.22-.53,1.15.06,1.23-1.23,0-.74,4.42-6.19,6.15-7.38,1.41-1,3.2-.62,4.92-1.23.28-.1.3-1,1.23-1.23,6.37-1.6,15.35-4.43,22.14,1.23,1.77-.28.43-3.67,2.46-3.69,6.68.93,9.53-1.94,16-1.23,2.59,7.24-.25,19.93,2.46,27.06a50.15,50.15,0,0,1-16,2.46c-6.26-.3-4.61-8.51-11.07-8.61-4.55.1-6,3.36-6.15,6.15C387.24,86,393,88.39,398.55,88c.71,6.86-1.43,10.87-2.46,16-1.64,2-7,.41-8.61,2.46-.94,1.23-1.5,2.45-2.46,3.69-.33.43-2.36,2.12-2.46,2.46-.94,3.08-.58,8.49,0,11.07,1.63,7.33,11,12.34,17.22,12.3,6.63,0,16.26-4.08,14.76-14.76.38-2.84-3.56-1.36-3.69-3.69-3.67.43-7.49.71-8.61,3.69-4.58,1.46.91,5.33-2.46,7.38-9.73.46-11.28-9.26-8.61-16,.86-2.18,3.49-6.73,6.15-8.61.44-.31,2.13.41,2.46,0,.12-.15-.15-1.16,0-1.23.44-.21,2.16.36,2.46,0,.6-.74,3.13-1.78,6.15-2.46,8.73-2,18.66-1.22,24.6-6.15,1.18-4.46-5.52-1-4.92-4.92-4.12-1.41-5.56-10-1.23-13.53.42-.34-.36-2,0-2.46,1-1.13,2.26-.47,3.69-1.23.49-.27,2.11-2.37,2.46-2.46,7.32-1.83,12,.15,16,3.69a10,10,0,0,1,3.69,6.15C452.87,80.16,453.9,80.61,453.9,80.63Z"/><path id="path2600" class="cls-2" d="M340.74,150.74c.77,5.09,2.47,10.46,1.23,14.76-3.9,2.44-8.36,1.66-12.3,2.46-8,1.64-12.77,5.19-18.45-1.23-.84-.95-.4-2.79-1.23-3.69s-3.55-1.88-4.92-3.69c-.67-.87-.46-2.77-1.23-3.69-1.28-1.54-3.81-2.37-4.92-3.69-.82-1-.5-2.73-1.23-3.69-1.38-1.79-5.1-3.59-7.38-6.15-1.51-1.67-2.27-4.57-3.69-6.15-1.8-2-3.18-2.43-4.93-3.69-2.52,1.77,1.9,8.68,1.23,13.53,1.46,1.42,4.35,1.39,7.39,1.23,1.69,9.37,5.95,16.19,6.15,27.06-11.89,4.11-26.17,5.82-39.37,8.61-4-6.69-4.85-16.46-6.15-25.83-.71-4.82,5.06-3.14,6.15-6.15a235.94,235.94,0,0,0-7.38-36.9c-1.05-3-8.56.36-9.84-2.46-.54-10.53-4.45-17.69-3.69-29.52,3.07-1.76,4.91-1.87,9.84-2.46.37-.05,2.26.26,2.46,0,.83-1,3.77-1.61,7.38-2.46,2.48-.58,4.46-1.5,6.15-1.23,2.8.44,2.1,1.36,3.69,2.46.77.52,2.92.54,3.69,1.23,1,.87,2.46,3.44,3.69,4.92,1.06,1.25,2.86,2.67,3.69,3.69,1.21,1.45,1.41,3.59,2.46,4.92,1.2,1.49,2.56,2.46,3.69,3.69,2.51,2.74,5.16,4.81,7.39,7.38,2.49,2.88,5.8,5.49,6.15,8.61,3.17-2.83-1.49-9.54-1.23-14.76-2.4-2.93-6.89,2.25-9.84-1.23,1-10-5.07-13-3.7-23.37a11.36,11.36,0,0,1,4.93-2.46c1.14-.28,2.55.34,3.69,0,1.62-.49,7.88-1.53,12.3-2.46C309,67,316,63.62,323.52,64.64c2.47,7.37,2.15,17.53,4.92,24.6-.29,4.23-3.67,5.36-7.38,6.15,1.61,13.15,4.51,25,6.15,38.13,3.14,3.59,8.67-1.6,11.07,1.23C338.65,140,339.89,145.19,340.74,150.74Z"/><path id="path2602" class="cls-2" d="M248.48,174.11c.29,1.12,2.24,6.59,1.23,11.07-5.53,2-11.21,3.2-17.22,4.92-9.42,2.72-19,5.84-29.52,8.61-.76.2-1.68-.19-2.46,0-1.15.29-3.07.68-4.92,1.23-1.14.35-2.05.83-3.69,1.23s-5.26,3-8.61,1.23c-1.65-8.6-4.82-15.68-6.15-24.6-.71-4.82,5.06-3.13,6.15-6.15-2.19-14.21-6.77-26-9.84-39.36-5.14-.28-5.8,2-9.84,0-3.26-8.22-4.93-18-7.38-27.06a17.42,17.42,0,0,1,6.15-3.69c5.41-1.92,10.3-2.08,16-3.69,1.08-.31,2.14-.79,3.69-1.23.42-.12,2.22.31,2.46,0,1.69-2.05,10-3.48,14.76-4.92,3.79-1.14,6.57-2.42,11.07-3.69.42-.12,2.22.31,2.46,0,.61-.74,3.55-2,7.38-1.23,4.27,9.68,7.14,20.74,9.84,32-5.26,3.35-11.89,5.33-18.45,7.38-5.93,1-2.4-7.44-7.38-7.38-9.76-.13-2,10.79-2.46,16,6.2.87,6.88-3.79,13.53-2.46,1.11,6.68,4.14,11.44,3.69,19.68-2.75,1.34-6.16,2-8.61,3.69,1.86,4.29,1.7,10.6,4.92,13.53,7.88-.32,5.37-5.53,4.92-12.3,6.42-2.59,13.79-4.25,20.91-6.15,4.62,5.49,2.59,14.09,6.15,19.68C248,171.63,248,172.35,248.48,174.11Z"/><path id="path2604" class="cls-2" d="M171,175.34c.64,1.61,2.51,7.11,2.46,11.07,0,2.7-1,3.09-1.23,4.92-.22,1.52.47,3.47,0,4.92-.13.41-1.17,0-1.23,1.23a11.74,11.74,0,0,1-1.23,2.46c-.37.81-.6,2.72-1.23,3.69-.31.47-2.27.83-2.46,1.23s.38,2.07,0,2.46-2.11-.42-2.46,0c-.82,1-1.93,3.62-3.69,4.92-1.08.8-2.63.58-3.69,1.23-.71.45-1.82,2.14-2.46,2.46s-1.77-.17-2.46,0c-1.08.27-2.1.84-3.69,1.23-1.08.27-2.1.84-3.69,1.23,0,0-3.6,1.13-3.69,1.23-.82,1-.93.85-2.46,1.23s-5.73,2.61-8.61,3.69c-.43.16-2.19-.33-2.46,0-.82,1-.93.85-2.46,1.23s-5.73,2.61-8.61,3.69c-.43.16-2.19-.33-2.46,0-2.31,2.83-14.05,2.62-17.22,2.46-2.55-8.12-6.37-14.95-7.38-24.6,1.46.24.62-1.84,1.23-2.46.38-.38,2.12.42,2.46,0s3.4-2.17,4.92-3.69c1-3.85-1.3-6.57-2.46-9.84-.65-1.86-1.46-4.89-2.46-7.38a200.42,200.42,0,0,1-6.15-19.68c-4.76-.66-6,2.2-11.07,1.23-3.2-9.1-8.78-15.82-8.61-28.29.68-1.23,2.4-.54,3.69-1.23.68-.37,1.89-2.23,2.46-2.46s1.73.19,2.46,0c1.08-.27,2.1-.84,3.69-1.23,1.4-.34,5.28-2.56,8.61-3.69.76-.26,5.31-.21,6.15-1.23s.94-.85,2.46-1.23,5.73-2.61,8.61-3.69c.43-.16,2.19.33,2.46,0,3-3.68,18-3.09,23.37-1.23.46.16,0,1.17,1.23,1.23.81,0,4.48.69,4.92,1.23a9,9,0,0,0,2.46,2.46,14.88,14.88,0,0,1,4.92,4.92c.86,1.34,1.58,2.31,2.46,3.69a10.58,10.58,0,0,1,1.23,3.69c.69,2.73,2.46,11.77,0,18.45,1.49,1.69,7.81,2.29,11.07,3.69,2.65,1.13,3.72,2.49,6.15,4.92.86.86,3,1.49,3.69,2.46,1,1.5.52,3.18,1.23,4.92.22.53,1.16-.07,1.23,1.23A4.6,4.6,0,0,0,171,175.34Zm-45.51,20.91c8,.05,13.81-5.68,12.3-11.07-1.86-6.62-9.25-5.07-16-2.46C122.47,187.78,125.32,190.68,125.48,196.25ZM112,161.81c7.15-.64,13.35-2.24,12.3-11.07-3.43-3.27-9.72-2.54-14.76-1.23C108.2,155.72,112.3,156.55,112,161.81Z"/><path id="path2606" d="M137.78,185.18c1.51,5.39-4.25,11.12-12.3,11.07-.16-5.57-3-8.47-3.69-13.53C128.53,180.11,135.92,178.56,137.78,185.18Z"/><path id="path2608" d="M124.25,150.74c1,8.83-5.15,10.43-12.3,11.07.35-5.26-3.75-6.09-2.46-12.3C114.53,148.2,120.82,147.47,124.25,150.74Z"/><g id="g2612"><path id="path2614" class="cls-3" d="M956.35,281.21l-2.7-1.37.5-1,6.56,3.32-.49,1-2.71-1.37-4,7.9-1.16-.58Z"/><path id="path2616" class="cls-3" d="M966.67,291.45c.56-1.27,1.23-2.8,1.8-3.9l0,0c-.82.89-1.76,1.82-2.82,2.81l-3.74,3.51-.87-.44.7-5c.21-1.46.44-2.79.72-4h0c-.59,1.09-1.4,2.54-2.15,3.83L958.08,292l-1.1-.55,5.11-8.57,1.46.74-.66,5.06c-.18,1.28-.37,2.41-.61,3.44l0,0c.68-.78,1.49-1.59,2.45-2.51l3.75-3.5,1.46.74L966,296l-1.12-.56Z"/></g><g id="g2618"><path id="path2620" class="cls-2" d="M924.68,239.07a8.3,8.3,0,1,1-11.1,4.35,8.37,8.37,0,0,1,11-4.37Zm-.73,1.5a6.61,6.61,0,0,0-5,12.24,6.32,6.32,0,0,0,8.36-3.68,6.38,6.38,0,0,0-3.33-8.54Zm-5.35,9.57-1.77-.73,3.15-7.59a16,16,0,0,1,3,.94,4.68,4.68,0,0,1,2.41,1.71,2.28,2.28,0,0,1,.06,1.94,2.13,2.13,0,0,1-2.33,1.16l0,.09a2.39,2.39,0,0,1,.62,2.44,5.52,5.52,0,0,0-.22,2.1l-1.91-.8a7,7,0,0,1,.15-2.07c.21-.89-.1-1.46-1.08-1.87l-.83-.34Zm1.83-4.26.83.35c1,.41,1.91.41,2.24-.38s0-1.38-1.15-1.84a4.3,4.3,0,0,0-1-.32Z"/></g></g></svg>