<svg id="Layer_1" data-name="Layer 1" xmlns="http://www.w3.org/2000/svg" viewBox="0 0 435.48 13.6"><defs><style>.cls-1{fill:#fbad1c;}</style></defs><path class="cls-1" d="M428,5l-3.81-1.94-2.05-1.2a13.63,13.63,0,0,0-13.8,0l-2,1.17s-6.4,5-14.21,1.94l-5.87-3.14a13.62,13.62,0,0,0-13.79,0l-2,1.17a15.23,15.23,0,0,1-8,3.68A14,14,0,0,1,355.4,5l-3.81-1.94-2.06-1.2a13.62,13.62,0,0,0-13.79,0l-2,1.17s-6.4,5-14.21,1.94l-5.87-3.14a13.62,13.62,0,0,0-13.79,0l-2,1.17a15.23,15.23,0,0,1-8,3.68A14,14,0,0,1,282.82,5L279,3.06,277,1.86a13.62,13.62,0,0,0-13.79,0l-2,1.17S254.78,8.1,247,5L241.1,1.86a13.62,13.62,0,0,0-13.79,0l-2,1.17a15.23,15.23,0,0,1-8,3.68h0A14.36,14.36,0,0,1,210.69,5l-3.81-1.94-2.06-1.2a13.62,13.62,0,0,0-13.79,0l-2,1.17s-6.4,5-14.21,1.94L169,1.86a13.62,13.62,0,0,0-13.79,0l-2,1.17a15.23,15.23,0,0,1-8,3.68,14,14,0,0,1-7-1.74L134.3,3.06l-2.06-1.2a13.62,13.62,0,0,0-13.79,0l-2,1.17s-6.39,5-14.2,1.94L96.39,1.86a13.62,13.62,0,0,0-13.79,0l-2,1.17a15.23,15.23,0,0,1-8,3.68,14,14,0,0,1-7-1.74L61.72,3.06l-2.06-1.2a13.62,13.62,0,0,0-13.79,0l-2,1.17S37.49,8.1,29.68,5L23.81,1.86A13.62,13.62,0,0,0,10,1.89L8,3.06A15.23,15.23,0,0,1,0,6.74V13.6H435V6.74A14,14,0,0,1,428,5Z"/></svg>